<svg viewBox="0 0 1280 720" height="720" width="1280" xmlns="http://www.w3.org/2000/svg" style="font-family:Roboto Condensed;font-size:12px;font-weight:bold;" class="highcharts-root" version="1.1" xmlns:xlink="http://www.w3.org/1999/xlink"><desc>Created with Highcharts 6.2.0</desc><defs><clipPath id="highcharts-whi0x59-111"><rect fill="none" height="600" width="1012" y="0" x="0"></rect></clipPath></defs><rect ry="0" rx="0" height="720" width="1280" y="0" x="0" class="highcharts-background" fill="#ffffff"></rect><rect height="600" width="1012" y="68" x="88" class="highcharts-plot-background" fill="none"></rect><rect height="600" width="1012" y="68" x="88" data-z-index="1" class="highcharts-plot-border" fill="none"></rect><g data-z-index="1" class="highcharts-grid highcharts-xaxis-grid"><path opacity="1" d="M 97.5 68 L 97.5 668" class="highcharts-grid-line" data-z-index="1" fill="none"></path><path opacity="1" d="M 593.5 68 L 593.5 668" class="highcharts-grid-line" data-z-index="1" fill="none"></path><path opacity="1" d="M 1089.5 68 L 1089.5 668" class="highcharts-grid-line" data-z-index="1" fill="none"></path></g><g data-z-index="1" class="highcharts-grid highcharts-yaxis-grid"><path opacity="1" d="M 88 668.5 L 1100 668.5" class="highcharts-grid-line" data-z-index="1" stroke-width="1" stroke="#e6e6e6" fill="none"></path><path opacity="1" d="M 88 597.5 L 1100 597.5" class="highcharts-grid-line" data-z-index="1" stroke-width="1" stroke="#e6e6e6" fill="none"></path><path opacity="1" d="M 88 527.5 L 1100 527.5" class="highcharts-grid-line" data-z-index="1" stroke-width="1" stroke="#e6e6e6" fill="none"></path><path opacity="1" d="M 88 456.5 L 1100 456.5" class="highcharts-grid-line" data-z-index="1" stroke-width="1" stroke="#e6e6e6" fill="none"></path><path opacity="1" d="M 88 386.5 L 1100 386.5" class="highcharts-grid-line" data-z-index="1" stroke-width="1" stroke="#e6e6e6" fill="none"></path><path opacity="1" d="M 88 315.5 L 1100 315.5" class="highcharts-grid-line" data-z-index="1" stroke-width="1" stroke="#e6e6e6" fill="none"></path><path opacity="1" d="M 88 245.5 L 1100 245.5" class="highcharts-grid-line" data-z-index="1" stroke-width="1" stroke="#e6e6e6" fill="none"></path><path opacity="1" d="M 88 174.5 L 1100 174.5" class="highcharts-grid-line" data-z-index="1" stroke-width="1" stroke="#e6e6e6" fill="none"></path><path opacity="1" d="M 88 104.5 L 1100 104.5" class="highcharts-grid-line" data-z-index="1" stroke-width="1" stroke="#e6e6e6" fill="none"></path></g><g data-z-index="2" class="highcharts-axis highcharts-xaxis"><path opacity="1" d="M 97.5 668 L 97.5 678" stroke-width="1" stroke="#ccd6eb" class="highcharts-tick" fill="none"></path><path opacity="1" d="M 593.5 668 L 593.5 678" stroke-width="1" stroke="#ccd6eb" class="highcharts-tick" fill="none"></path><path opacity="1" d="M 1089.5 668 L 1089.5 678" stroke-width="1" stroke="#ccd6eb" class="highcharts-tick" fill="none"></path><path d="M 88 668.5 L 1100 668.5" data-z-index="7" stroke-width="1" stroke="#ccd6eb" class="highcharts-axis-line" fill="none"></path></g><g data-z-index="2" class="highcharts-axis highcharts-yaxis"><text y="368" style="color:#666666;font-size:24px;fill:#666666;" class="highcharts-axis-title" transform="translate(0,0) rotate(270 38.71875 368)" text-anchor="middle" data-z-index="7" x="38.71875"><tspan>%</tspan></text><path d="M 88 68 L 88 668" data-z-index="7" class="highcharts-axis-line" fill="none"></path></g><g data-z-index="3" class="highcharts-series-group"><g clip-path="url(#highcharts-whi0x59-111)" transform="translate(88,68) scale(1 1)" class="highcharts-series highcharts-series-0 highcharts-line-series" data-z-index="0.1"><path stroke-linecap="round" stroke-linejoin="round" stroke-width="7" stroke="#3BACAC" data-z-index="1" class="highcharts-graph" d="M 9.9215686274421 258.5537918871252 L 506 240.2116402116402 L 1002.0784313726 169.6649029982363" fill="none"></path></g><g clip-path="none" transform="translate(88,68) scale(1 1)" class="highcharts-markers highcharts-series-0 highcharts-line-series" data-z-index="0.1"><path class="highcharts-point" d="M 13 258.5537918871252 A 4 4 0 1 1 12.999998000000167 258.54979188779186 Z" fill="#3BACAC"></path><path class="highcharts-point" d="M 510 240.2116402116402 A 4 4 0 1 1 509.9999980000002 240.20764021230687 Z" fill="#3BACAC"></path><path class="highcharts-point" d="M 1006 169.6649029982363 A 4 4 0 1 1 1005.9999980000001 169.66090299890297 Z" fill="#3BACAC"></path></g><g clip-path="url(#highcharts-whi0x59-111)" transform="translate(88,68) scale(1 1)" class="highcharts-series highcharts-series-1 highcharts-line-series" data-z-index="0.1"><path stroke-linecap="round" stroke-linejoin="round" stroke-width="7" stroke="#D22D49" data-z-index="1" class="highcharts-graph" d="M 9.9215686274421 28.571428571428555 L 506 103.3509700176366 L 1002.0784313726 272.663139329806" fill="none"></path></g><g clip-path="none" transform="translate(88,68) scale(1 1)" class="highcharts-markers highcharts-series-1 highcharts-line-series" data-z-index="0.1"><path class="highcharts-point" d="M 9 24.571428571428555 L 13 28.571428571428555 9 32.571428571428555 5 28.571428571428555 Z" fill="#D22D49"></path><path class="highcharts-point" d="M 506 99.3509700176366 L 510 103.3509700176366 506 107.3509700176366 502 103.3509700176366 Z" fill="#D22D49"></path><path class="highcharts-point" d="M 1002 268.663139329806 L 1006 272.663139329806 1002 276.663139329806 998 272.663139329806 Z" fill="#D22D49"></path></g><g clip-path="url(#highcharts-whi0x59-111)" transform="translate(88,68) scale(1 1)" class="highcharts-series highcharts-series-2 highcharts-line-series" data-z-index="0.1"><path stroke-linecap="round" stroke-linejoin="round" stroke-width="7" stroke="#933F2C" data-z-index="1" class="highcharts-graph" d="M 9.9215686274421 513.9329805996473 L 506 441.9753086419753 L 1002.0784313726 334.74426807760136" fill="none"></path></g><g clip-path="none" transform="translate(88,68) scale(1 1)" class="highcharts-markers highcharts-series-2 highcharts-line-series" data-z-index="0.1"><path class="highcharts-point" d="M 5 509.9329805996473 L 13 509.9329805996473 13 517.9329805996473 5 517.9329805996473 Z" fill="#933F2C"></path><path class="highcharts-point" d="M 502 437.9753086419753 L 510 437.9753086419753 510 445.9753086419753 502 445.9753086419753 Z" fill="#933F2C"></path><path class="highcharts-point" d="M 998 330.74426807760136 L 1006 330.74426807760136 1006 338.74426807760136 998 338.74426807760136 Z" fill="#933F2C"></path></g><g clip-path="url(#highcharts-whi0x59-111)" transform="translate(88,68) scale(1 1)" class="highcharts-series highcharts-series-3 highcharts-line-series" data-z-index="0.1"><path stroke-linecap="round" stroke-linejoin="round" stroke-width="7" stroke="#00D1ED" data-z-index="1" class="highcharts-graph" d="M 9.9215686274421 274.074074074074 L 506 351.6754850088183 L 1002.0784313726 419.4003527336861" fill="none"></path></g><g clip-path="none" transform="translate(88,68) scale(1 1)" class="highcharts-markers highcharts-series-3 highcharts-line-series" data-z-index="0.1"><path class="highcharts-point" d="M 9 270.074074074074 L 13 278.074074074074 5 278.074074074074 Z" fill="#00D1ED"></path><path class="highcharts-point" d="M 506 347.6754850088183 L 510 355.6754850088183 502 355.6754850088183 Z" fill="#00D1ED"></path><path class="highcharts-point" d="M 1002 415.4003527336861 L 1006 423.4003527336861 998 423.4003527336861 Z" fill="#00D1ED"></path></g><g clip-path="url(#highcharts-whi0x59-111)" transform="translate(88,68) scale(1 1)" class="highcharts-series highcharts-series-4 highcharts-line-series" data-z-index="0.1"><path stroke-linecap="round" stroke-linejoin="round" stroke-width="7" stroke="#FE9D00" data-z-index="1" class="highcharts-graph" d="M 9.9215686274421 560.4938271604939 L 506 489.9470899470899 L 1002.0784313726 478.6596119929453" fill="none"></path></g><g clip-path="none" transform="translate(88,68) scale(1 1)" class="highcharts-markers highcharts-series-4 highcharts-line-series" data-z-index="0.1"><path class="highcharts-point" d="M 5 556.4938271604939 L 13 556.4938271604939 9 564.4938271604939 Z" fill="#FE9D00"></path><path class="highcharts-point" d="M 502 485.9470899470899 L 510 485.9470899470899 506 493.9470899470899 Z" fill="#FE9D00"></path><path class="highcharts-point" d="M 998 474.6596119929453 L 1006 474.6596119929453 1002 482.6596119929453 Z" fill="#FE9D00"></path></g><g clip-path="url(#highcharts-whi0x59-111)" transform="translate(88,68) scale(1 1)" class="highcharts-series highcharts-series-5 highcharts-line-series" data-z-index="0.1"><path stroke-linecap="round" stroke-linejoin="round" stroke-width="7" stroke="#EEE716" data-z-index="1" class="highcharts-graph" d="M 9.9215686274421 554.8500881834215 L 506 560.4938271604939 L 1002.0784313726 515.3439153439153" fill="none"></path></g><g clip-path="none" transform="translate(88,68) scale(1 1)" class="highcharts-markers highcharts-series-5 highcharts-line-series" data-z-index="0.1"><path class="highcharts-point" d="M 13 554.8500881834215 A 4 4 0 1 1 12.999998000000167 554.8460881840881 Z" fill="#EEE716"></path><path class="highcharts-point" d="M 510 560.4938271604939 A 4 4 0 1 1 509.9999980000002 560.4898271611605 Z" fill="#EEE716"></path><path class="highcharts-point" d="M 1006 515.3439153439153 A 4 4 0 1 1 1005.9999980000001 515.339915344582 Z" fill="#EEE716"></path></g><g clip-path="url(#highcharts-whi0x59-111)" transform="translate(88,68) scale(1 1)" class="highcharts-series highcharts-series-6 highcharts-line-series" data-z-index="0.1"><path stroke-linecap="round" stroke-linejoin="round" stroke-width="7" stroke="#DDB33A" data-z-index="1" class="highcharts-graph" d="M 9.9215686274421 598.589065255732 L 506 600" fill="none"></path></g><g clip-path="none" transform="translate(88,68) scale(1 1)" class="highcharts-markers highcharts-series-6 highcharts-line-series" data-z-index="0.1"><path class="highcharts-point" d="M 9 594.589065255732 L 13 598.589065255732 9 602.589065255732 5 598.589065255732 Z" fill="#DDB33A"></path><path class="highcharts-point" d="M 506 596 L 510 600 506 604 502 600 Z" fill="#DDB33A"></path></g></g><text y="30" style="color:#333333;font-size:24px;fill:#333333;" data-z-index="4" class="highcharts-title" text-anchor="middle" x="640"><tspan>Yoshinobu Yamamoto Pitch %   by Season</tspan></text><text y="53" style="color:#666666;fill:#666666;" data-z-index="4" class="highcharts-subtitle" text-anchor="middle" x="640"><tspan>Source: baseballsavant.mlb.com</tspan></text><g transform="translate(1112,251)" data-z-index="7" class="highcharts-legend"><rect visibility="visible" height="214" width="158" y="0" x="0" ry="0" rx="0" class="highcharts-legend-box" fill="none"></rect><g data-z-index="1"><g><g transform="translate(8,3)" data-z-index="1" class="highcharts-legend-item highcharts-line-series highcharts-color-undefined highcharts-series-0"><path stroke-width="7" stroke="#3BACAC" class="highcharts-graph" d="M 0 20 L 16 20" fill="none"></path><path class="highcharts-point" d="M 12 20 A 4 4 0 1 1 11.999998000000167 19.996000000666665 Z" fill="#3BACAC"></path><text y="27" data-z-index="2" text-anchor="start" style="color:#333333;font-size:24px;font-weight:bold;cursor:pointer;fill:#333333;" x="21"><tspan>Split Finger</tspan></text></g><g transform="translate(8,32)" data-z-index="1" class="highcharts-legend-item highcharts-line-series highcharts-color-undefined highcharts-series-1"><path stroke-width="7" stroke="#D22D49" class="highcharts-graph" d="M 0 20 L 16 20" fill="none"></path><path class="highcharts-point" d="M 8 16 L 12 20 8 24 4 20 Z" fill="#D22D49"></path><text data-z-index="2" text-anchor="start" style="color:#333333;font-size:24px;font-weight:bold;cursor:pointer;fill:#333333;" y="27" x="21"><tspan>Four Seamer</tspan></text></g><g transform="translate(8,61)" data-z-index="1" class="highcharts-legend-item highcharts-line-series highcharts-color-undefined highcharts-series-2"><path stroke-width="7" stroke="#933F2C" class="highcharts-graph" d="M 0 20 L 16 20" fill="none"></path><path class="highcharts-point" d="M 4 16 L 12 16 12 24 4 24 Z" fill="#933F2C"></path><text data-z-index="2" text-anchor="start" style="color:#333333;font-size:24px;font-weight:bold;cursor:pointer;fill:#333333;" y="27" x="21"><tspan>Cutter</tspan></text></g><g transform="translate(8,90)" data-z-index="1" class="highcharts-legend-item highcharts-line-series highcharts-color-undefined highcharts-series-3"><path stroke-width="7" stroke="#00D1ED" class="highcharts-graph" d="M 0 20 L 16 20" fill="none"></path><path class="highcharts-point" d="M 8 16 L 12 24 4 24 Z" fill="#00D1ED"></path><text data-z-index="2" text-anchor="start" style="color:#333333;font-size:24px;font-weight:bold;cursor:pointer;fill:#333333;" y="27" x="21"><tspan>Curveball</tspan></text></g><g transform="translate(8,119)" data-z-index="1" class="highcharts-legend-item highcharts-line-series highcharts-color-undefined highcharts-series-4"><path stroke-width="7" stroke="#FE9D00" class="highcharts-graph" d="M 0 20 L 16 20" fill="none"></path><path class="highcharts-point" d="M 4 16 L 12 16 8 24 Z" fill="#FE9D00"></path><text data-z-index="2" text-anchor="start" style="color:#333333;font-size:24px;font-weight:bold;cursor:pointer;fill:#333333;" y="27" x="21"><tspan>Sinker</tspan></text></g><g transform="translate(8,148)" data-z-index="1" class="highcharts-legend-item highcharts-line-series highcharts-color-undefined highcharts-series-5"><path stroke-width="7" stroke="#EEE716" class="highcharts-graph" d="M 0 20 L 16 20" fill="none"></path><path class="highcharts-point" d="M 12 20 A 4 4 0 1 1 11.999998000000167 19.996000000666665 Z" fill="#EEE716"></path><text data-z-index="2" text-anchor="start" style="color:#333333;font-size:24px;font-weight:bold;cursor:pointer;fill:#333333;" y="27" x="21"><tspan>Slider</tspan></text></g><g transform="translate(8,177)" data-z-index="1" class="highcharts-legend-item highcharts-line-series highcharts-color-undefined highcharts-series-6"><path stroke-width="7" stroke="#DDB33A" class="highcharts-graph" d="M 0 20 L 16 20" fill="none"></path><path class="highcharts-point" d="M 8 16 L 12 20 8 24 4 20 Z" fill="#DDB33A"></path><text data-z-index="2" text-anchor="start" style="color:#333333;font-size:24px;font-weight:bold;cursor:pointer;fill:#333333;" y="27" x="21"><tspan>Sweeper</tspan></text></g></g></g></g><g data-z-index="7" class="highcharts-axis-labels highcharts-xaxis-labels"><text opacity="1" y="699" transform="translate(0,0)" text-anchor="middle" style="color:#666666;cursor:default;font-size:24px;fill:#666666;" x="97.921568627442">2024</text><text opacity="1" y="699" transform="translate(0,0)" text-anchor="middle" style="color:#666666;cursor:default;font-size:24px;fill:#666666;" x="594">2025</text><text opacity="1" y="699" transform="translate(0,0)" text-anchor="middle" style="color:#666666;cursor:default;font-size:24px;fill:#666666;" x="1090.0784313726">2026</text></g><g data-z-index="7" class="highcharts-axis-labels highcharts-yaxis-labels"><text opacity="1" y="677" transform="translate(0,0)" text-anchor="end" style="color:#666666;cursor:default;font-size:24px;fill:#666666;" x="73">0</text><text opacity="1" y="606" transform="translate(0,0)" text-anchor="end" style="color:#666666;cursor:default;font-size:24px;fill:#666666;" x="73">5</text><text opacity="1" y="535" transform="translate(0,0)" text-anchor="end" style="color:#666666;cursor:default;font-size:24px;fill:#666666;" x="73">10</text><text opacity="1" y="465" transform="translate(0,0)" text-anchor="end" style="color:#666666;cursor:default;font-size:24px;fill:#666666;" x="73">15</text><text opacity="1" y="394" transform="translate(0,0)" text-anchor="end" style="color:#666666;cursor:default;font-size:24px;fill:#666666;" x="73">20</text><text opacity="1" y="324" transform="translate(0,0)" text-anchor="end" style="color:#666666;cursor:default;font-size:24px;fill:#666666;" x="73">25</text><text opacity="1" y="253" transform="translate(0,0)" text-anchor="end" style="color:#666666;cursor:default;font-size:24px;fill:#666666;" x="73">30</text><text opacity="1" y="183" transform="translate(0,0)" text-anchor="end" style="color:#666666;cursor:default;font-size:24px;fill:#666666;" x="73">35</text><text opacity="1" y="112" transform="translate(0,0)" text-anchor="end" style="color:#666666;cursor:default;font-size:24px;fill:#666666;" x="73">40</text></g></svg>