<svg xmlns="http://www.w3.org/2000/svg" fill="none" viewBox="0 0 600 361"><g clip-path="url(#a)"><path fill="#fff" stroke="#111" d="M599.5.5v359.028H.5V.5z"/><path fill="#ee3e42" d="M377.014 226.296c.503-.936 1.007-1.944 1.367-2.879-.864 1.943-1.871 3.743-3.023 5.614l1.08-1.728c-.288.576-.648 1.152-1.008 1.728-26.128 42.322-82.845 53.551-124.592 26.415-41.387-26.991-53.263-82.197-26.704-123.8.072-.216.216-.504.36-.72 26.128-42.394 82.846-53.55 124.592-26.415 40.739 26.559 52.904 80.47 27.928 121.785"/></g><defs><clipPath id="a"><path fill="#fff" d="M0 0h600v360.029H0z"/></clipPath></defs></svg>