<svg viewBox="0 0 1280 720" height="720" width="1280" xmlns="http://www.w3.org/2000/svg" style="font-family:Roboto Condensed;font-size:12px;font-weight:bold;" class="highcharts-root" version="1.1" xmlns:xlink="http://www.w3.org/1999/xlink"><desc>Created with Highcharts 6.2.0</desc><defs><clipPath id="highcharts-1fa96sw-59"><rect fill="none" height="600" width="1045" y="0" x="0"></rect></clipPath></defs><rect ry="0" rx="0" height="720" width="1280" y="0" x="0" class="highcharts-background" fill="#ffffff"></rect><rect height="600" width="1045" y="68" x="88" class="highcharts-plot-background" fill="none"></rect><rect height="600" width="1045" y="68" x="88" data-z-index="1" class="highcharts-plot-border" fill="none"></rect><g data-z-index="1" class="highcharts-grid highcharts-xaxis-grid"><path opacity="1" d="M 97.5 68 L 97.5 668" class="highcharts-grid-line" data-z-index="1" fill="none"></path><path opacity="1" d="M 225.5 68 L 225.5 668" class="highcharts-grid-line" data-z-index="1" fill="none"></path><path opacity="1" d="M 353.5 68 L 353.5 668" class="highcharts-grid-line" data-z-index="1" fill="none"></path><path opacity="1" d="M 481.5 68 L 481.5 668" class="highcharts-grid-line" data-z-index="1" fill="none"></path><path opacity="1" d="M 610.5 68 L 610.5 668" class="highcharts-grid-line" data-z-index="1" fill="none"></path><path opacity="1" d="M 738.5 68 L 738.5 668" class="highcharts-grid-line" data-z-index="1" fill="none"></path><path opacity="1" d="M 866.5 68 L 866.5 668" class="highcharts-grid-line" data-z-index="1" fill="none"></path><path opacity="1" d="M 994.5 68 L 994.5 668" class="highcharts-grid-line" data-z-index="1" fill="none"></path><path opacity="1" d="M 1122.5 68 L 1122.5 668" class="highcharts-grid-line" data-z-index="1" fill="none"></path></g><g data-z-index="1" class="highcharts-grid highcharts-yaxis-grid"><path opacity="1" d="M 88 668.5 L 1133 668.5" class="highcharts-grid-line" data-z-index="1" stroke-width="1" stroke="#e6e6e6" fill="none"></path><path opacity="1" d="M 88 619.5 L 1133 619.5" class="highcharts-grid-line" data-z-index="1" stroke-width="1" stroke="#e6e6e6" fill="none"></path><path opacity="1" d="M 88 570.5 L 1133 570.5" class="highcharts-grid-line" data-z-index="1" stroke-width="1" stroke="#e6e6e6" fill="none"></path><path opacity="1" d="M 88 521.5 L 1133 521.5" class="highcharts-grid-line" data-z-index="1" stroke-width="1" stroke="#e6e6e6" fill="none"></path><path opacity="1" d="M 88 472.5 L 1133 472.5" class="highcharts-grid-line" data-z-index="1" stroke-width="1" stroke="#e6e6e6" fill="none"></path><path opacity="1" d="M 88 423.5 L 1133 423.5" class="highcharts-grid-line" data-z-index="1" stroke-width="1" stroke="#e6e6e6" fill="none"></path><path opacity="1" d="M 88 374.5 L 1133 374.5" class="highcharts-grid-line" data-z-index="1" stroke-width="1" stroke="#e6e6e6" fill="none"></path><path opacity="1" d="M 88 325.5 L 1133 325.5" class="highcharts-grid-line" data-z-index="1" stroke-width="1" stroke="#e6e6e6" fill="none"></path><path opacity="1" d="M 88 276.5 L 1133 276.5" class="highcharts-grid-line" data-z-index="1" stroke-width="1" stroke="#e6e6e6" fill="none"></path><path opacity="1" d="M 88 227.5 L 1133 227.5" class="highcharts-grid-line" data-z-index="1" stroke-width="1" stroke="#e6e6e6" fill="none"></path><path opacity="1" d="M 88 178.5 L 1133 178.5" class="highcharts-grid-line" data-z-index="1" stroke-width="1" stroke="#e6e6e6" fill="none"></path><path opacity="1" d="M 88 129.5 L 1133 129.5" class="highcharts-grid-line" data-z-index="1" stroke-width="1" stroke="#e6e6e6" fill="none"></path><path opacity="1" d="M 88 80.5 L 1133 80.5" class="highcharts-grid-line" data-z-index="1" stroke-width="1" stroke="#e6e6e6" fill="none"></path></g><g data-z-index="2" class="highcharts-axis highcharts-xaxis"><path opacity="1" d="M 97.5 668 L 97.5 678" stroke-width="1" stroke="#ccd6eb" class="highcharts-tick" fill="none"></path><path opacity="1" d="M 225.5 668 L 225.5 678" stroke-width="1" stroke="#ccd6eb" class="highcharts-tick" fill="none"></path><path opacity="1" d="M 353.5 668 L 353.5 678" stroke-width="1" stroke="#ccd6eb" class="highcharts-tick" fill="none"></path><path opacity="1" d="M 481.5 668 L 481.5 678" stroke-width="1" stroke="#ccd6eb" class="highcharts-tick" fill="none"></path><path opacity="1" d="M 610.5 668 L 610.5 678" stroke-width="1" stroke="#ccd6eb" class="highcharts-tick" fill="none"></path><path opacity="1" d="M 738.5 668 L 738.5 678" stroke-width="1" stroke="#ccd6eb" class="highcharts-tick" fill="none"></path><path opacity="1" d="M 866.5 668 L 866.5 678" stroke-width="1" stroke="#ccd6eb" class="highcharts-tick" fill="none"></path><path opacity="1" d="M 994.5 668 L 994.5 678" stroke-width="1" stroke="#ccd6eb" class="highcharts-tick" fill="none"></path><path opacity="1" d="M 1122.5 668 L 1122.5 678" stroke-width="1" stroke="#ccd6eb" class="highcharts-tick" fill="none"></path><path d="M 88 668.5 L 1133 668.5" data-z-index="7" stroke-width="1" stroke="#ccd6eb" class="highcharts-axis-line" fill="none"></path></g><g data-z-index="2" class="highcharts-axis highcharts-yaxis"><text y="368" style="color:#666666;font-size:24px;fill:#666666;" class="highcharts-axis-title" transform="translate(0,0) rotate(270 38.71875 368)" text-anchor="middle" data-z-index="7" x="38.71875"><tspan>%</tspan></text><path d="M 88 68 L 88 668" data-z-index="7" class="highcharts-axis-line" fill="none"></path></g><g data-z-index="3" class="highcharts-series-group"><g clip-path="url(#highcharts-1fa96sw-59)" transform="translate(88,68) scale(1 1)" class="highcharts-series highcharts-series-0 highcharts-line-series" data-z-index="0.1"><path stroke-linecap="round" stroke-linejoin="round" stroke-width="7" stroke="#f00" data-z-index="1" class="highcharts-graph" d="M 10.245098039207 28.571428571428555 L 138.3088235294 49.154618965939676 L 266.3725490196 47.194315118843406 L 394.4362745098 105.02327860818423 L 522.5 89.34084783141384 L 650.5637254902 114.82479784366575 L 778.6274509804 74.63856897819164 L 906.69117647059 97.18206321979909 L 1034.7549019608 52.09507473658414" fill="none"></path></g><g clip-path="none" transform="translate(88,68) scale(1 1)" class="highcharts-markers highcharts-series-0 highcharts-line-series" data-z-index="0.1"><path class="highcharts-point" d="M 14 28.571428571428555 A 4 4 0 1 1 13.999998000000167 28.56742857209522 Z" fill="#f00"></path><path class="highcharts-point" d="M 142 49.154618965939676 A 4 4 0 1 1 141.99999800000018 49.15061896660634 Z" fill="#f00"></path><path class="highcharts-point" d="M 270 47.194315118843406 A 4 4 0 1 1 269.9999980000002 47.19031511951007 Z" fill="#f00"></path><path class="highcharts-point" d="M 398 105.02327860818423 A 4 4 0 1 1 397.9999980000002 105.0192786088509 Z" fill="#f00"></path><path class="highcharts-point" d="M 526 89.34084783141384 A 4 4 0 1 1 525.9999980000001 89.33684783208051 Z" fill="#f00"></path><path class="highcharts-point" d="M 654 114.82479784366575 A 4 4 0 1 1 653.9999980000001 114.82079784433242 Z" fill="#f00"></path><path class="highcharts-point" d="M 782 74.63856897819164 A 4 4 0 1 1 781.9999980000001 74.63456897885831 Z" fill="#f00"></path><path class="highcharts-point" d="M 910 97.18206321979909 A 4 4 0 1 1 909.9999980000001 97.17806322046576 Z" fill="#f00"></path><path class="highcharts-point" d="M 1038 52.09507473658414 A 4 4 0 1 1 1037.9999980000002 52.0910747372508 Z" fill="#f00"></path></g><g clip-path="url(#highcharts-1fa96sw-59)" transform="translate(88,68) scale(1 1)" class="highcharts-series highcharts-series-1 highcharts-line-series" data-z-index="0.1"><path stroke-linecap="round" stroke-linejoin="round" stroke-width="7" stroke="#00f" data-z-index="1" class="highcharts-graph" d="M 10.245098039207 351.04141141876994 L 138.3088235294 332.41852487135503 L 266.3725490196 354.9620191129625 L 394.4362745098 299.093359470718 L 522.5 336.3391325655477 L 650.5637254902 297.13305562362166 L 778.6274509804 301.05366331781426 L 906.69117647059 288.3116883116883 L 1034.7549019608 309.8750306297476" fill="none"></path></g><g clip-path="none" transform="translate(88,68) scale(1 1)" class="highcharts-markers highcharts-series-1 highcharts-line-series" data-z-index="0.1"><path class="highcharts-point" d="M 10 347.04141141876994 L 14 351.04141141876994 10 355.04141141876994 6 351.04141141876994 Z" fill="#00f"></path><path class="highcharts-point" d="M 138 328.41852487135503 L 142 332.41852487135503 138 336.41852487135503 134 332.41852487135503 Z" fill="#00f"></path><path class="highcharts-point" d="M 266 350.9620191129625 L 270 354.9620191129625 266 358.9620191129625 262 354.9620191129625 Z" fill="#00f"></path><path class="highcharts-point" d="M 394 295.093359470718 L 398 299.093359470718 394 303.093359470718 390 299.093359470718 Z" fill="#00f"></path><path class="highcharts-point" d="M 522 332.3391325655477 L 526 336.3391325655477 522 340.3391325655477 518 336.3391325655477 Z" fill="#00f"></path><path class="highcharts-point" d="M 650 293.13305562362166 L 654 297.13305562362166 650 301.13305562362166 646 297.13305562362166 Z" fill="#00f"></path><path class="highcharts-point" d="M 778 297.05366331781426 L 782 301.05366331781426 778 305.05366331781426 774 301.05366331781426 Z" fill="#00f"></path><path class="highcharts-point" d="M 906 284.3116883116883 L 910 288.3116883116883 906 292.3116883116883 902 288.3116883116883 Z" fill="#00f"></path><path class="highcharts-point" d="M 1034 305.8750306297476 L 1038 309.8750306297476 1034 313.8750306297476 1030 309.8750306297476 Z" fill="#00f"></path></g><g clip-path="url(#highcharts-1fa96sw-59)" transform="translate(88,68) scale(1 1)" class="highcharts-series highcharts-series-2 highcharts-line-series" data-z-index="0.1"><path stroke-linecap="round" stroke-linejoin="round" stroke-width="7" stroke="#0f0" data-z-index="1" class="highcharts-graph" d="M 10.245098039207 439.2550845381034 L 138.3088235294 438.27493261455527 L 266.3725490196 418.6718941435922 L 394.4362745098 415.73143837294776 L 522.5 393.1879441313404 L 650.5637254902 407.89022298456257 L 778.6274509804 444.15584415584414 L 906.69117647059 434.35432492036267 L 1034.7549019608 457.87797108551825" fill="none"></path></g><g clip-path="none" transform="translate(88,68) scale(1 1)" class="highcharts-markers highcharts-series-2 highcharts-line-series" data-z-index="0.1"><path class="highcharts-point" d="M 6 435.2550845381034 L 14 435.2550845381034 14 443.2550845381034 6 443.2550845381034 Z" fill="#0f0"></path><path class="highcharts-point" d="M 134 434.27493261455527 L 142 434.27493261455527 142 442.27493261455527 134 442.27493261455527 Z" fill="#0f0"></path><path class="highcharts-point" d="M 262 414.6718941435922 L 270 414.6718941435922 270 422.6718941435922 262 422.6718941435922 Z" fill="#0f0"></path><path class="highcharts-point" d="M 390 411.73143837294776 L 398 411.73143837294776 398 419.73143837294776 390 419.73143837294776 Z" fill="#0f0"></path><path class="highcharts-point" d="M 518 389.1879441313404 L 526 389.1879441313404 526 397.1879441313404 518 397.1879441313404 Z" fill="#0f0"></path><path class="highcharts-point" d="M 646 403.89022298456257 L 654 403.89022298456257 654 411.89022298456257 646 411.89022298456257 Z" fill="#0f0"></path><path class="highcharts-point" d="M 774 440.15584415584414 L 782 440.15584415584414 782 448.15584415584414 774 448.15584415584414 Z" fill="#0f0"></path><path class="highcharts-point" d="M 902 430.35432492036267 L 910 430.35432492036267 910 438.35432492036267 902 438.35432492036267 Z" fill="#0f0"></path><path class="highcharts-point" d="M 1030 453.87797108551825 L 1038 453.87797108551825 1038 461.87797108551825 1030 461.87797108551825 Z" fill="#0f0"></path></g></g><text y="30" style="color:#333333;font-size:24px;fill:#333333;" data-z-index="4" class="highcharts-title" text-anchor="middle" x="640"><tspan>Shohei Ohtani Pitch %   by Season</tspan></text><text y="53" style="color:#666666;fill:#666666;" data-z-index="4" class="highcharts-subtitle" text-anchor="middle" x="640"><tspan>Source: baseballsavant.mlb.com</tspan></text><g transform="translate(1145,309)" data-z-index="7" class="highcharts-legend"><rect visibility="visible" height="98" width="124" y="0" x="0" ry="0" rx="0" class="highcharts-legend-box" fill="none"></rect><g data-z-index="1"><g><g transform="translate(8,3)" data-z-index="1" class="highcharts-legend-item highcharts-line-series highcharts-color-undefined highcharts-series-0"><path stroke-width="7" stroke="#f00" class="highcharts-graph" d="M 0 20 L 16 20" fill="none"></path><path class="highcharts-point" d="M 12 20 A 4 4 0 1 1 11.999998000000167 19.996000000666665 Z" fill="#f00"></path><text y="27" data-z-index="2" text-anchor="start" style="color:#333333;font-size:24px;font-weight:bold;cursor:pointer;fill:#333333;" x="21"><tspan>Fastball</tspan></text></g><g transform="translate(8,32)" data-z-index="1" class="highcharts-legend-item highcharts-line-series highcharts-color-undefined highcharts-series-1"><path stroke-width="7" stroke="#00f" class="highcharts-graph" d="M 0 20 L 16 20" fill="none"></path><path class="highcharts-point" d="M 8 16 L 12 20 8 24 4 20 Z" fill="#00f"></path><text data-z-index="2" text-anchor="start" style="color:#333333;font-size:24px;font-weight:bold;cursor:pointer;fill:#333333;" y="27" x="21"><tspan>Breaking</tspan></text></g><g transform="translate(8,61)" data-z-index="1" class="highcharts-legend-item highcharts-line-series highcharts-color-undefined highcharts-series-2"><path stroke-width="7" stroke="#0f0" class="highcharts-graph" d="M 0 20 L 16 20" fill="none"></path><path class="highcharts-point" d="M 4 16 L 12 16 12 24 4 24 Z" fill="#0f0"></path><text data-z-index="2" text-anchor="start" style="color:#333333;font-size:24px;font-weight:bold;cursor:pointer;fill:#333333;" y="27" x="21"><tspan>Offspeed</tspan></text></g></g></g></g><g data-z-index="7" class="highcharts-axis-labels highcharts-xaxis-labels"><text opacity="1" y="699" transform="translate(0,0)" text-anchor="middle" style="color:#666666;cursor:default;font-size:24px;fill:#666666;" x="98.245098039207">2018</text><text opacity="1" y="699" transform="translate(0,0)" text-anchor="middle" style="color:#666666;cursor:default;font-size:24px;fill:#666666;" x="226.3088235294">2019</text><text opacity="1" y="699" transform="translate(0,0)" text-anchor="middle" style="color:#666666;cursor:default;font-size:24px;fill:#666666;" x="354.3725490196">2020</text><text opacity="1" y="699" transform="translate(0,0)" text-anchor="middle" style="color:#666666;cursor:default;font-size:24px;fill:#666666;" x="482.4362745098">2021</text><text opacity="1" y="699" transform="translate(0,0)" text-anchor="middle" style="color:#666666;cursor:default;font-size:24px;fill:#666666;" x="610.5">2022</text><text opacity="1" y="699" transform="translate(0,0)" text-anchor="middle" style="color:#666666;cursor:default;font-size:24px;fill:#666666;" x="738.5637254902">2023</text><text opacity="1" y="699" transform="translate(0,0)" text-anchor="middle" style="color:#666666;cursor:default;font-size:24px;fill:#666666;" x="866.6274509804">2024</text><text opacity="1" y="699" transform="translate(0,0)" text-anchor="middle" style="color:#666666;cursor:default;font-size:24px;fill:#666666;" x="994.69117647059">2025</text><text opacity="1" y="699" transform="translate(0,0)" text-anchor="middle" style="color:#666666;cursor:default;font-size:24px;fill:#666666;" x="1122.7549019608">2026</text></g><g data-z-index="7" class="highcharts-axis-labels highcharts-yaxis-labels"><text opacity="1" y="677" transform="translate(0,0)" text-anchor="end" style="color:#666666;cursor:default;font-size:24px;fill:#666666;" x="73">0</text><text opacity="1" y="627" transform="translate(0,0)" text-anchor="end" style="color:#666666;cursor:default;font-size:24px;fill:#666666;" x="73">5</text><text opacity="1" y="578" transform="translate(0,0)" text-anchor="end" style="color:#666666;cursor:default;font-size:24px;fill:#666666;" x="73">10</text><text opacity="1" y="529" transform="translate(0,0)" text-anchor="end" style="color:#666666;cursor:default;font-size:24px;fill:#666666;" x="73">15</text><text opacity="1" y="480" transform="translate(0,0)" text-anchor="end" style="color:#666666;cursor:default;font-size:24px;fill:#666666;" x="73">20</text><text opacity="1" y="431" transform="translate(0,0)" text-anchor="end" style="color:#666666;cursor:default;font-size:24px;fill:#666666;" x="73">25</text><text opacity="1" y="382" transform="translate(0,0)" text-anchor="end" style="color:#666666;cursor:default;font-size:24px;fill:#666666;" x="73">30</text><text opacity="1" y="333" transform="translate(0,0)" text-anchor="end" style="color:#666666;cursor:default;font-size:24px;fill:#666666;" x="73">35</text><text opacity="1" y="284" transform="translate(0,0)" text-anchor="end" style="color:#666666;cursor:default;font-size:24px;fill:#666666;" x="73">40</text><text opacity="1" y="235" transform="translate(0,0)" text-anchor="end" style="color:#666666;cursor:default;font-size:24px;fill:#666666;" x="73">45</text><text opacity="1" y="186" transform="translate(0,0)" text-anchor="end" style="color:#666666;cursor:default;font-size:24px;fill:#666666;" x="73">50</text><text opacity="1" y="137" transform="translate(0,0)" text-anchor="end" style="color:#666666;cursor:default;font-size:24px;fill:#666666;" x="73">55</text><text opacity="1" y="88" transform="translate(0,0)" text-anchor="end" style="color:#666666;cursor:default;font-size:24px;fill:#666666;" x="73">60</text></g></svg>