<svg viewBox="0 0 1280 720" height="720" width="1280" xmlns="http://www.w3.org/2000/svg" style="font-family:Roboto Condensed;font-size:12px;font-weight:bold;" class="highcharts-root" version="1.1" xmlns:xlink="http://www.w3.org/1999/xlink"><desc>Created with Highcharts 6.2.0</desc><defs><clipPath id="highcharts-whi0x59-79"><rect fill="none" height="600" width="1051" y="0" x="0"></rect></clipPath></defs><rect ry="0" rx="0" height="720" width="1280" y="0" x="0" class="highcharts-background" fill="#ffffff"></rect><rect height="600" width="1051" y="68" x="49" class="highcharts-plot-background" fill="none"></rect><rect height="600" width="1051" y="68" x="49" data-z-index="1" class="highcharts-plot-border" fill="none"></rect><g data-z-index="1" class="highcharts-grid highcharts-xaxis-grid"><path opacity="1" d="M 58.5 68 L 58.5 668" class="highcharts-grid-line" data-z-index="1" fill="none"></path><path opacity="1" d="M 574.5 68 L 574.5 668" class="highcharts-grid-line" data-z-index="1" fill="none"></path><path opacity="1" d="M 1089.5 68 L 1089.5 668" class="highcharts-grid-line" data-z-index="1" fill="none"></path></g><g data-z-index="1" class="highcharts-grid highcharts-yaxis-grid"><path opacity="1" d="M 49 668.5 L 1100 668.5" class="highcharts-grid-line" data-z-index="1" stroke-width="1" stroke="#e6e6e6" fill="none"></path><path opacity="1" d="M 49 601.5 L 1100 601.5" class="highcharts-grid-line" data-z-index="1" stroke-width="1" stroke="#e6e6e6" fill="none"></path><path opacity="1" d="M 49 535.5 L 1100 535.5" class="highcharts-grid-line" data-z-index="1" stroke-width="1" stroke="#e6e6e6" fill="none"></path><path opacity="1" d="M 49 468.5 L 1100 468.5" class="highcharts-grid-line" data-z-index="1" stroke-width="1" stroke="#e6e6e6" fill="none"></path><path opacity="1" d="M 49 401.5 L 1100 401.5" class="highcharts-grid-line" data-z-index="1" stroke-width="1" stroke="#e6e6e6" fill="none"></path><path opacity="1" d="M 49 335.5 L 1100 335.5" class="highcharts-grid-line" data-z-index="1" stroke-width="1" stroke="#e6e6e6" fill="none"></path><path opacity="1" d="M 49 268.5 L 1100 268.5" class="highcharts-grid-line" data-z-index="1" stroke-width="1" stroke="#e6e6e6" fill="none"></path><path opacity="1" d="M 49 201.5 L 1100 201.5" class="highcharts-grid-line" data-z-index="1" stroke-width="1" stroke="#e6e6e6" fill="none"></path><path opacity="1" d="M 49 135.5 L 1100 135.5" class="highcharts-grid-line" data-z-index="1" stroke-width="1" stroke="#e6e6e6" fill="none"></path><path opacity="1" d="M 49 67.5 L 1100 67.5" class="highcharts-grid-line" data-z-index="1" stroke-width="1" stroke="#e6e6e6" fill="none"></path></g><g data-z-index="2" class="highcharts-axis highcharts-xaxis"><path opacity="1" d="M 58.5 668 L 58.5 678" stroke-width="1" stroke="#ccd6eb" class="highcharts-tick" fill="none"></path><path opacity="1" d="M 574.5 668 L 574.5 678" stroke-width="1" stroke="#ccd6eb" class="highcharts-tick" fill="none"></path><path opacity="1" d="M 1089.5 668 L 1089.5 678" stroke-width="1" stroke="#ccd6eb" class="highcharts-tick" fill="none"></path><path d="M 49 668.5 L 1100 668.5" data-z-index="7" stroke-width="1" stroke="#ccd6eb" class="highcharts-axis-line" fill="none"></path></g><g data-z-index="2" class="highcharts-axis highcharts-yaxis"><path d="M 49 68 L 49 668" data-z-index="7" class="highcharts-axis-line" fill="none"></path></g><g data-z-index="3" class="highcharts-series-group"><g clip-path="url(#highcharts-whi0x59-79)" transform="translate(49,68) scale(1 1)" class="highcharts-series highcharts-series-0 highcharts-line-series" data-z-index="0.1"><path stroke-linecap="round" stroke-linejoin="round" stroke-width="7" stroke="#FE9D00" data-z-index="1" class="highcharts-graph" d="M 10.303921568618 546.6666666666666 L 525.5 553.3333333333334 L 1040.6960784314 563.3333333333334" fill="none"></path></g><g clip-path="none" transform="translate(49,68) scale(1 1)" class="highcharts-markers highcharts-series-0 highcharts-line-series" data-z-index="0.1"><path class="highcharts-point highcharts-negative" d="M 12 546.6666666666666 A 2 2 0 1 1 11.999999000000084 546.664666667 Z" fill="#FE9D00"></path><path class="highcharts-point highcharts-negative" d="M 527 553.3333333333334 A 2 2 0 1 1 526.9999990000001 553.3313333336667 Z" fill="#FE9D00"></path><path class="highcharts-point highcharts-negative" d="M 1042 563.3333333333334 A 2 2 0 1 1 1041.9999990000001 563.3313333336667 Z" fill="#FE9D00"></path></g><g clip-path="url(#highcharts-whi0x59-79)" transform="translate(49,68) scale(1 1)" class="highcharts-series highcharts-series-1 highcharts-line-series" data-z-index="0.1"><path stroke-linecap="round" stroke-linejoin="round" stroke-width="7" stroke="#3BACAC" data-z-index="1" class="highcharts-graph" d="M 10.303921568618 413.33333333333337 L 525.5 403.3333333333333 L 1040.6960784314 410" fill="none"></path></g><g clip-path="none" transform="translate(49,68) scale(1 1)" class="highcharts-markers highcharts-series-1 highcharts-line-series" data-z-index="0.1"><path class="highcharts-point highcharts-negative" d="M 10 411.33333333333337 L 12 413.33333333333337 10 415.33333333333337 8 413.33333333333337 Z" fill="#3BACAC"></path><path class="highcharts-point highcharts-negative" d="M 525 401.3333333333333 L 527 403.3333333333333 525 405.3333333333333 523 403.3333333333333 Z" fill="#3BACAC"></path><path class="highcharts-point highcharts-negative" d="M 1040 408 L 1042 410 1040 412 1038 410 Z" fill="#3BACAC"></path></g><g clip-path="url(#highcharts-whi0x59-79)" transform="translate(49,68) scale(1 1)" class="highcharts-series highcharts-series-2 highcharts-line-series" data-z-index="0.1"><path stroke-linecap="round" stroke-linejoin="round" stroke-width="7" stroke="#D22D49" data-z-index="1" class="highcharts-graph" d="M 10.303921568618 390 L 525.5 373.3333333333333 L 1040.6960784314 373.3333333333333" fill="none"></path></g><g clip-path="none" transform="translate(49,68) scale(1 1)" class="highcharts-markers highcharts-series-2 highcharts-line-series" data-z-index="0.1"><path class="highcharts-point" d="M 8 388 L 12 388 12 392 8 392 Z" fill="#D22D49"></path><path class="highcharts-point" d="M 523 371.3333333333333 L 527 371.3333333333333 527 375.3333333333333 523 375.3333333333333 Z" fill="#D22D49"></path><path class="highcharts-point" d="M 1038 371.3333333333333 L 1042 371.3333333333333 1042 375.3333333333333 1038 375.3333333333333 Z" fill="#D22D49"></path></g><g clip-path="url(#highcharts-whi0x59-79)" transform="translate(49,68) scale(1 1)" class="highcharts-series highcharts-series-3 highcharts-line-series" data-z-index="0.1"><path stroke-linecap="round" stroke-linejoin="round" stroke-width="7" stroke="#933F2C" data-z-index="1" class="highcharts-graph" d="M 10.303921568618 400 L 525.5 416.66666666666663 L 1040.6960784314 393.3333333333333" fill="none"></path></g><g clip-path="none" transform="translate(49,68) scale(1 1)" class="highcharts-markers highcharts-series-3 highcharts-line-series" data-z-index="0.1"><path class="highcharts-point" d="M 10 398 L 12 402 8 402 Z" fill="#933F2C"></path><path class="highcharts-point highcharts-negative" d="M 525 414.66666666666663 L 527 418.66666666666663 523 418.66666666666663 Z" fill="#933F2C"></path><path class="highcharts-point" d="M 1040 391.3333333333333 L 1042 395.3333333333333 1038 395.3333333333333 Z" fill="#933F2C"></path></g><g clip-path="url(#highcharts-whi0x59-79)" transform="translate(49,68) scale(1 1)" class="highcharts-series highcharts-series-4 highcharts-line-series" data-z-index="0.1"><path stroke-linecap="round" stroke-linejoin="round" stroke-width="7" stroke="#EEE716" data-z-index="1" class="highcharts-graph" d="M 10.303921568618 336.66666666666663 L 525.5 370 L 1040.6960784314 426.66666666666663" fill="none"></path></g><g clip-path="none" transform="translate(49,68) scale(1 1)" class="highcharts-markers highcharts-series-4 highcharts-line-series" data-z-index="0.1"><path class="highcharts-point" d="M 8 334.66666666666663 L 12 334.66666666666663 10 338.66666666666663 Z" fill="#EEE716"></path><path class="highcharts-point" d="M 523 368 L 527 368 525 372 Z" fill="#EEE716"></path><path class="highcharts-point highcharts-negative" d="M 1038 424.66666666666663 L 1042 424.66666666666663 1040 428.66666666666663 Z" fill="#EEE716"></path></g><g clip-path="url(#highcharts-whi0x59-79)" transform="translate(49,68) scale(1 1)" class="highcharts-series highcharts-series-5 highcharts-line-series" data-z-index="0.1"><path stroke-linecap="round" stroke-linejoin="round" stroke-width="7" stroke="#00D1ED" data-z-index="1" class="highcharts-graph" d="M 10.303921568618 183.33333333333331 L 525.5 173.33333333333326 L 1040.6960784314 203.33333333333331" fill="none"></path></g><g clip-path="none" transform="translate(49,68) scale(1 1)" class="highcharts-markers highcharts-series-5 highcharts-line-series" data-z-index="0.1"><path class="highcharts-point" d="M 12 183.33333333333331 A 2 2 0 1 1 11.999999000000084 183.33133333366663 Z" fill="#00D1ED"></path><path class="highcharts-point" d="M 527 173.33333333333326 A 2 2 0 1 1 526.9999990000001 173.33133333366658 Z" fill="#00D1ED"></path><path class="highcharts-point" d="M 1042 203.33333333333331 A 2 2 0 1 1 1041.9999990000001 203.33133333366663 Z" fill="#00D1ED"></path></g><g clip-path="url(#highcharts-whi0x59-79)" transform="translate(49,68) scale(1 1)" class="highcharts-series highcharts-series-6 highcharts-line-series" data-z-index="0.1"><path stroke-linecap="round" stroke-linejoin="round" stroke-width="7" stroke="#DDB33A" data-z-index="1" class="highcharts-graph" d="M 10.303921568618 186.66666666666663 L 525.5 83.33333333333326" fill="none"></path></g><g clip-path="none" transform="translate(49,68) scale(1 1)" class="highcharts-markers highcharts-series-6 highcharts-line-series" data-z-index="0.1"><path class="highcharts-point" d="M 10 184.66666666666663 L 12 186.66666666666663 10 188.66666666666663 8 186.66666666666663 Z" fill="#DDB33A"></path><path class="highcharts-point" d="M 525 81.33333333333326 L 527 83.33333333333326 525 85.33333333333326 523 83.33333333333326 Z" fill="#DDB33A"></path></g></g><text y="30" style="color:#333333;font-size:24px;fill:#333333;" data-z-index="4" class="highcharts-title" text-anchor="middle" x="640"><tspan>Yoshinobu Yamamoto Vertical Movement vs Avg (Inches) by Season</tspan></text><text y="53" style="color:#666666;fill:#666666;" data-z-index="4" class="highcharts-subtitle" text-anchor="middle" x="640"><tspan>Source: baseballsavant.mlb.com</tspan></text><g transform="translate(1112,251)" data-z-index="7" class="highcharts-legend"><rect visibility="visible" height="214" width="158" y="0" x="0" ry="0" rx="0" class="highcharts-legend-box" fill="none"></rect><g data-z-index="1"><g><g transform="translate(8,3)" data-z-index="1" class="highcharts-legend-item highcharts-line-series highcharts-color-undefined highcharts-series-0"><path stroke-width="7" stroke="#FE9D00" class="highcharts-graph" d="M 0 20 L 16 20" fill="none"></path><path class="highcharts-point" d="M 10 20 A 2 2 0 1 1 9.999999000000084 19.99800000033333 Z" fill="#FE9D00"></path><text y="27" data-z-index="2" text-anchor="start" style="color:#333333;font-size:24px;font-weight:bold;cursor:pointer;fill:#333333;" x="21"><tspan>Sinker</tspan></text></g><g transform="translate(8,32)" data-z-index="1" class="highcharts-legend-item highcharts-line-series highcharts-color-undefined highcharts-series-1"><path stroke-width="7" stroke="#3BACAC" class="highcharts-graph" d="M 0 20 L 16 20" fill="none"></path><path class="highcharts-point" d="M 8 18 L 10 20 8 22 6 20 Z" fill="#3BACAC"></path><text data-z-index="2" text-anchor="start" style="color:#333333;font-size:24px;font-weight:bold;cursor:pointer;fill:#333333;" y="27" x="21"><tspan>Split Finger</tspan></text></g><g transform="translate(8,61)" data-z-index="1" class="highcharts-legend-item highcharts-line-series highcharts-color-undefined highcharts-series-2"><path stroke-width="7" stroke="#D22D49" class="highcharts-graph" d="M 0 20 L 16 20" fill="none"></path><path class="highcharts-point" d="M 6 18 L 10 18 10 22 6 22 Z" fill="#D22D49"></path><text data-z-index="2" text-anchor="start" style="color:#333333;font-size:24px;font-weight:bold;cursor:pointer;fill:#333333;" y="27" x="21"><tspan>Four Seamer</tspan></text></g><g transform="translate(8,90)" data-z-index="1" class="highcharts-legend-item highcharts-line-series highcharts-color-undefined highcharts-series-3"><path stroke-width="7" stroke="#933F2C" class="highcharts-graph" d="M 0 20 L 16 20" fill="none"></path><path class="highcharts-point" d="M 8 18 L 10 22 6 22 Z" fill="#933F2C"></path><text data-z-index="2" text-anchor="start" style="color:#333333;font-size:24px;font-weight:bold;cursor:pointer;fill:#333333;" y="27" x="21"><tspan>Cutter</tspan></text></g><g transform="translate(8,119)" data-z-index="1" class="highcharts-legend-item highcharts-line-series highcharts-color-undefined highcharts-series-4"><path stroke-width="7" stroke="#EEE716" class="highcharts-graph" d="M 0 20 L 16 20" fill="none"></path><path class="highcharts-point" d="M 6 18 L 10 18 8 22 Z" fill="#EEE716"></path><text data-z-index="2" text-anchor="start" style="color:#333333;font-size:24px;font-weight:bold;cursor:pointer;fill:#333333;" y="27" x="21"><tspan>Slider</tspan></text></g><g transform="translate(8,148)" data-z-index="1" class="highcharts-legend-item highcharts-line-series highcharts-color-undefined highcharts-series-5"><path stroke-width="7" stroke="#00D1ED" class="highcharts-graph" d="M 0 20 L 16 20" fill="none"></path><path class="highcharts-point" d="M 10 20 A 2 2 0 1 1 9.999999000000084 19.99800000033333 Z" fill="#00D1ED"></path><text data-z-index="2" text-anchor="start" style="color:#333333;font-size:24px;font-weight:bold;cursor:pointer;fill:#333333;" y="27" x="21"><tspan>Curveball</tspan></text></g><g transform="translate(8,177)" data-z-index="1" class="highcharts-legend-item highcharts-line-series highcharts-color-undefined highcharts-series-6"><path stroke-width="7" stroke="#DDB33A" class="highcharts-graph" d="M 0 20 L 16 20" fill="none"></path><path class="highcharts-point" d="M 8 18 L 10 20 8 22 6 20 Z" fill="#DDB33A"></path><text data-z-index="2" text-anchor="start" style="color:#333333;font-size:24px;font-weight:bold;cursor:pointer;fill:#333333;" y="27" x="21"><tspan>Sweeper</tspan></text></g></g></g></g><g data-z-index="7" class="highcharts-axis-labels highcharts-xaxis-labels"><text opacity="1" y="699" transform="translate(0,0)" text-anchor="middle" style="color:#666666;cursor:default;font-size:24px;fill:#666666;" x="59.303921568618">2024</text><text opacity="1" y="699" transform="translate(0,0)" text-anchor="middle" style="color:#666666;cursor:default;font-size:24px;fill:#666666;" x="574.5">2025</text><text opacity="1" y="699" transform="translate(0,0)" text-anchor="middle" style="color:#666666;cursor:default;font-size:24px;fill:#666666;" x="1089.6960784314">2026</text></g><g data-z-index="7" class="highcharts-axis-labels highcharts-yaxis-labels"><text opacity="1" y="677" transform="translate(0,0)" text-anchor="end" style="color:#666666;cursor:default;font-size:24px;fill:#666666;" x="34">-6</text><text opacity="1" y="610" transform="translate(0,0)" text-anchor="end" style="color:#666666;cursor:default;font-size:24px;fill:#666666;" x="34">-4</text><text opacity="1" y="543" transform="translate(0,0)" text-anchor="end" style="color:#666666;cursor:default;font-size:24px;fill:#666666;" x="34">-2</text><text opacity="1" y="477" transform="translate(0,0)" text-anchor="end" style="color:#666666;cursor:default;font-size:24px;fill:#666666;" x="34">0</text><text opacity="1" y="410" transform="translate(0,0)" text-anchor="end" style="color:#666666;cursor:default;font-size:24px;fill:#666666;" x="34">2</text><text opacity="1" y="343" transform="translate(0,0)" text-anchor="end" style="color:#666666;cursor:default;font-size:24px;fill:#666666;" x="34">4</text><text opacity="1" y="277" transform="translate(0,0)" text-anchor="end" style="color:#666666;cursor:default;font-size:24px;fill:#666666;" x="34">6</text><text opacity="1" y="210" transform="translate(0,0)" text-anchor="end" style="color:#666666;cursor:default;font-size:24px;fill:#666666;" x="34">8</text><text opacity="1" y="143" transform="translate(0,0)" text-anchor="end" style="color:#666666;cursor:default;font-size:24px;fill:#666666;" x="34">10</text><text opacity="1" y="77" transform="translate(0,0)" text-anchor="end" style="color:#666666;cursor:default;font-size:24px;fill:#666666;" x="34">12</text></g></svg>