<svg xmlns="http://www.w3.org/2000/svg" viewBox="0 0 128.468 171.413"><g data-name="Layer 2"><g data-name="Layer 1"><path d="M70.25 171.413h48.852a27.222 27.222 0 0 1-10.28-14.573l-13.654-46.873c-1.482-5.043.924-10.084 4.77-13.499-5.452-1.668-10.279-5.464-11.816-10.676l-7.638-26.234c10.873-3.626 17.963-10.074 17.963-17.556 0-9.772-12.107-17.778-28.936-20.067L63.124 0h-7.16l-6.388 21.935C32.738 24.225 20.62 32.23 20.62 42.002c0 7.482 7.101 13.93 17.983 17.556l-7.648 26.234c-1.502 5.212-6.353 9.008-11.802 10.676 3.832 3.415 6.248 8.456 4.781 13.499L10.27 156.84A27.414 27.414 0 0 1 0 171.413h48.848c-3.998-3.074-6.177-8.446-4.39-14.573l1.2-4.098H73.44l1.19 4.098c1.793 6.127-.392 11.5-4.38 14.573zm-14.91-51.855l4.214-14.493 4.208 14.493z" fill="#fff"/><path d="M110.876 168.088a32.171 32.171 0 0 1-5.268-10.314L92.05 111.232a15.653 15.653 0 0 1 2.346-13.478c-4.715-2.552-8.166-6.438-9.471-11.028l-8.262-28.333c11.647-3.104 19.581-9.27 19.581-16.39 0-9.01-12.766-16.533-29.653-18.2L60.629 3.324h-2.16l-5.961 20.479c-16.908 1.667-29.673 9.19-29.673 18.2 0 7.12 7.949 13.286 19.589 16.39l-8.255 28.333a18.785 18.785 0 0 1-9.487 11.028 15.598 15.598 0 0 1 2.36 13.478L13.48 157.774a31.889 31.889 0 0 1-5.278 10.314h33.822c-2.737-6.036-1.296-10.424-.071-14.563l1.2-4.118h32.782l1.216 4.118c1.2 4.139 2.632 8.527-.096 14.563zm-60.02-45.185l8.698-29.78 8.667 29.78z" fill="#003263"/><path d="M68.532 49.284L64.19 34.329l.854 2.982c-1.778-.09-3.616-.16-5.489-.16v9.701l26.048 89.308 5.996 20.489 10.29 6.166a35.647 35.647 0 0 1-1.849-4.81l-12.97-44.393c-2.045-6.93-.925-9.933.557-14.11a21.581 21.581 0 0 1-7.754-11.27l-9.838-33.806-.014.01zm-5.926-20.409L59.554 18.42v10.394c1.03 0 2.033.02 3.052.061zM27.338 157.192l8.322 5.623a22.453 22.453 0 0 1 .783-9.098l2.747-9.562-5.715-7.995z" fill="#ba0021"/><path fill="#ba0021" d="M43.845 128.155l15.709-53.793v-27.51L33.475 136.16h52.127l-10.386-8.005H43.845z"/><path fill="#862633" d="M59.554 74.362l15.662 53.793 10.386 8.005-26.048-89.308v27.51z"/><path d="M101.887 162.815l-10.29-6.166-5.995-20.49H33.475l26.079-89.307v-9.701c1.873 0 3.71.07 5.489.16l-.854-2.982c-.231 0-.472-.01-.703-.03a84.336 84.336 0 0 0-3.932-.11c-1.582 0-3.139.06-4.65.14l-4.36 14.955h.016l-1.501 5.151h-.016L39.19 88.233A21.45 21.45 0 0 1 31.467 99.5c1.466 4.178 2.586 7.181.552 14.11l-12.97 44.394a31.113 31.113 0 0 1-1.874 4.81H35.66l-8.321-5.623 6.136-21.032 5.715 7.995h40.682l2.807 9.562a23.74 23.74 0 0 1 .753 9.098zM59.554 18.42l-3.048 10.455c1.003-.04 2.024-.06 3.048-.06z" fill="#862633"/><path d="M50.56 49.284h-.015c-9.436-1.115-16.136-3.968-16.136-7.282 0-3.816 8.824-6.99 20.494-7.673 1.512-.08 3.07-.141 4.65-.141 1.341 0 2.647.05 3.933.11.231.02.472.03.703.03 11.656.674 20.504 3.847 20.504 7.674 0 3.314-6.724 6.167-16.15 7.282h-.01l1.487 5.151.014-.009c12.148-1.808 20.88-6.679 20.88-12.424 0-6.84-12.438-12.474-28.308-13.127a77.094 77.094 0 0 0-6.1 0c-15.915.653-28.323 6.287-28.323 13.127 0 5.745 8.712 10.616 20.86 12.433h.015z" fill="#c4ced4"/><path d="M126.122 164.613c0-1.295-.763-1.507-1.868-1.507h-2.345v4.842h1.014v-1.928h.834l1.105 1.928h1.124l-1.17-1.928a1.272 1.272 0 0 0 1.306-1.407zm-1.848.552h-1.35v-1.174h1.11c.471 0 1.093 0 1.093.522 0 .513-.31.652-.853.652z" fill="#003263"/><path d="M123.838 160.887a4.645 4.645 0 1 0 4.63 4.67 4.614 4.614 0 0 0-4.63-4.67zm0 8.297a3.631 3.631 0 1 1 3.615-3.627 3.555 3.555 0 0 1-3.615 3.627z" fill="#003263"/></g></g></svg>