<svg viewBox="0 0 1280 720" height="720" width="1280" xmlns="http://www.w3.org/2000/svg" style="font-family:Roboto Condensed;font-size:12px;font-weight:bold;" class="highcharts-root" version="1.1" xmlns:xlink="http://www.w3.org/1999/xlink"><desc>Created with Highcharts 6.2.0</desc><defs><clipPath id="highcharts-gcfalos-246"><rect fill="none" height="600" width="1012" y="0" x="0"></rect></clipPath></defs><rect ry="0" rx="0" height="720" width="1280" y="0" x="0" class="highcharts-background" fill="#ffffff"></rect><rect height="600" width="1012" y="68" x="88" class="highcharts-plot-background" fill="none"></rect><rect height="600" width="1012" y="68" x="88" data-z-index="1" class="highcharts-plot-border" fill="none"></rect><g data-z-index="1" class="highcharts-grid highcharts-xaxis-grid"><path opacity="1" d="M 97.5 68 L 97.5 668" class="highcharts-grid-line" data-z-index="1" fill="none"></path><path opacity="1" d="M 221.5 68 L 221.5 668" class="highcharts-grid-line" data-z-index="1" fill="none"></path><path opacity="1" d="M 345.5 68 L 345.5 668" class="highcharts-grid-line" data-z-index="1" fill="none"></path><path opacity="1" d="M 469.5 68 L 469.5 668" class="highcharts-grid-line" data-z-index="1" fill="none"></path><path opacity="1" d="M 593.5 68 L 593.5 668" class="highcharts-grid-line" data-z-index="1" fill="none"></path><path opacity="1" d="M 717.5 68 L 717.5 668" class="highcharts-grid-line" data-z-index="1" fill="none"></path><path opacity="1" d="M 841.5 68 L 841.5 668" class="highcharts-grid-line" data-z-index="1" fill="none"></path><path opacity="1" d="M 965.5 68 L 965.5 668" class="highcharts-grid-line" data-z-index="1" fill="none"></path><path opacity="1" d="M 1089.5 68 L 1089.5 668" class="highcharts-grid-line" data-z-index="1" fill="none"></path></g><g data-z-index="1" class="highcharts-grid highcharts-yaxis-grid"><path opacity="1" d="M 88 668.5 L 1100 668.5" class="highcharts-grid-line" data-z-index="1" stroke-width="1" stroke="#e6e6e6" fill="none"></path><path opacity="1" d="M 88 609.5 L 1100 609.5" class="highcharts-grid-line" data-z-index="1" stroke-width="1" stroke="#e6e6e6" fill="none"></path><path opacity="1" d="M 88 551.5 L 1100 551.5" class="highcharts-grid-line" data-z-index="1" stroke-width="1" stroke="#e6e6e6" fill="none"></path><path opacity="1" d="M 88 492.5 L 1100 492.5" class="highcharts-grid-line" data-z-index="1" stroke-width="1" stroke="#e6e6e6" fill="none"></path><path opacity="1" d="M 88 434.5 L 1100 434.5" class="highcharts-grid-line" data-z-index="1" stroke-width="1" stroke="#e6e6e6" fill="none"></path><path opacity="1" d="M 88 375.5 L 1100 375.5" class="highcharts-grid-line" data-z-index="1" stroke-width="1" stroke="#e6e6e6" fill="none"></path><path opacity="1" d="M 88 317.5 L 1100 317.5" class="highcharts-grid-line" data-z-index="1" stroke-width="1" stroke="#e6e6e6" fill="none"></path><path opacity="1" d="M 88 258.5 L 1100 258.5" class="highcharts-grid-line" data-z-index="1" stroke-width="1" stroke="#e6e6e6" fill="none"></path><path opacity="1" d="M 88 200.5 L 1100 200.5" class="highcharts-grid-line" data-z-index="1" stroke-width="1" stroke="#e6e6e6" fill="none"></path><path opacity="1" d="M 88 141.5 L 1100 141.5" class="highcharts-grid-line" data-z-index="1" stroke-width="1" stroke="#e6e6e6" fill="none"></path><path opacity="1" d="M 88 83.5 L 1100 83.5" class="highcharts-grid-line" data-z-index="1" stroke-width="1" stroke="#e6e6e6" fill="none"></path></g><g data-z-index="2" class="highcharts-axis highcharts-xaxis"><path opacity="1" d="M 97.5 668 L 97.5 678" stroke-width="1" stroke="#ccd6eb" class="highcharts-tick" fill="none"></path><path opacity="1" d="M 221.5 668 L 221.5 678" stroke-width="1" stroke="#ccd6eb" class="highcharts-tick" fill="none"></path><path opacity="1" d="M 345.5 668 L 345.5 678" stroke-width="1" stroke="#ccd6eb" class="highcharts-tick" fill="none"></path><path opacity="1" d="M 469.5 668 L 469.5 678" stroke-width="1" stroke="#ccd6eb" class="highcharts-tick" fill="none"></path><path opacity="1" d="M 593.5 668 L 593.5 678" stroke-width="1" stroke="#ccd6eb" class="highcharts-tick" fill="none"></path><path opacity="1" d="M 717.5 668 L 717.5 678" stroke-width="1" stroke="#ccd6eb" class="highcharts-tick" fill="none"></path><path opacity="1" d="M 841.5 668 L 841.5 678" stroke-width="1" stroke="#ccd6eb" class="highcharts-tick" fill="none"></path><path opacity="1" d="M 965.5 668 L 965.5 678" stroke-width="1" stroke="#ccd6eb" class="highcharts-tick" fill="none"></path><path opacity="1" d="M 1089.5 668 L 1089.5 678" stroke-width="1" stroke="#ccd6eb" class="highcharts-tick" fill="none"></path><path d="M 88 668.5 L 1100 668.5" data-z-index="7" stroke-width="1" stroke="#ccd6eb" class="highcharts-axis-line" fill="none"></path></g><g data-z-index="2" class="highcharts-axis highcharts-yaxis"><text y="368" style="color:#666666;font-size:24px;fill:#666666;" class="highcharts-axis-title" transform="translate(0,0) rotate(270 38.71875 368)" text-anchor="middle" data-z-index="7" x="38.71875"><tspan>%</tspan></text><path d="M 88 68 L 88 668" data-z-index="7" class="highcharts-axis-line" fill="none"></path></g><g data-z-index="3" class="highcharts-series-group"><g clip-path="url(#highcharts-gcfalos-246)" transform="translate(88,68) scale(1 1)" class="highcharts-series highcharts-series-0 highcharts-line-series" data-z-index="0.1"><path stroke-linecap="round" stroke-linejoin="round" stroke-width="7" stroke="#D22D49" data-z-index="1" class="highcharts-graph" d="M 9.9215686274421 56.67447306791564 M 257.96078431372 28.571428571428555 L 381.98039215686 85.9484777517564 L 506 280.327868852459 L 630.01960784314 214.75409836065575 M 878.05882352942 145.6674473067916 L 1002.0784313726 177.28337236533952" fill="none"></path></g><g clip-path="none" transform="translate(88,68) scale(1 1)" class="highcharts-markers highcharts-series-0 highcharts-line-series" data-z-index="0.1"><path class="highcharts-point" d="M 13 56.67447306791564 A 4 4 0 1 1 12.999998000000167 56.670473068582304 Z" fill="#D22D49"></path><path class="highcharts-point" d="M 261 28.571428571428555 A 4 4 0 1 1 260.9999980000002 28.56742857209522 Z" fill="#D22D49"></path><path class="highcharts-point" d="M 385 85.9484777517564 A 4 4 0 1 1 384.9999980000002 85.94447775242307 Z" fill="#D22D49"></path><path class="highcharts-point" d="M 510 280.327868852459 A 4 4 0 1 1 509.9999980000002 280.32386885312565 Z" fill="#D22D49"></path><path class="highcharts-point" d="M 634 214.75409836065575 A 4 4 0 1 1 633.9999980000001 214.75009836132242 Z" fill="#D22D49"></path><path class="highcharts-point" d="M 882 145.6674473067916 A 4 4 0 1 1 881.9999980000001 145.66344730745826 Z" fill="#D22D49"></path><path class="highcharts-point" d="M 1006 177.28337236533952 A 4 4 0 1 1 1005.9999980000001 177.27937236600619 Z" fill="#D22D49"></path></g><g clip-path="url(#highcharts-gcfalos-246)" transform="translate(88,68) scale(1 1)" class="highcharts-series highcharts-series-1 highcharts-line-series" data-z-index="0.1"><path stroke-linecap="round" stroke-linejoin="round" stroke-width="7" stroke="#00D1ED" data-z-index="1" class="highcharts-graph" d="M 9.9215686274421 522.7166276346604 M 257.96078431372 526.2295081967213 L 381.98039215686 560.1873536299765 L 506 501.6393442622951 L 630.01960784314 556.6744730679156 M 878.05882352942 496.95550351288057 L 1002.0784313726 376.34660421545664" fill="none"></path></g><g clip-path="none" transform="translate(88,68) scale(1 1)" class="highcharts-markers highcharts-series-1 highcharts-line-series" data-z-index="0.1"><path class="highcharts-point" d="M 9 518.7166276346604 L 13 522.7166276346604 9 526.7166276346604 5 522.7166276346604 Z" fill="#00D1ED"></path><path class="highcharts-point" d="M 257 522.2295081967213 L 261 526.2295081967213 257 530.2295081967213 253 526.2295081967213 Z" fill="#00D1ED"></path><path class="highcharts-point" d="M 381 556.1873536299765 L 385 560.1873536299765 381 564.1873536299765 377 560.1873536299765 Z" fill="#00D1ED"></path><path class="highcharts-point" d="M 506 497.6393442622951 L 510 501.6393442622951 506 505.6393442622951 502 501.6393442622951 Z" fill="#00D1ED"></path><path class="highcharts-point" d="M 630 552.6744730679156 L 634 556.6744730679156 630 560.6744730679156 626 556.6744730679156 Z" fill="#00D1ED"></path><path class="highcharts-point" d="M 878 492.95550351288057 L 882 496.95550351288057 878 500.95550351288057 874 496.95550351288057 Z" fill="#00D1ED"></path><path class="highcharts-point" d="M 1002 372.34660421545664 L 1006 376.34660421545664 1002 380.34660421545664 998 376.34660421545664 Z" fill="#00D1ED"></path></g><g clip-path="url(#highcharts-gcfalos-246)" transform="translate(88,68) scale(1 1)" class="highcharts-series highcharts-series-2 highcharts-line-series" data-z-index="0.1"><path stroke-linecap="round" stroke-linejoin="round" stroke-width="7" stroke="#DDB33A" data-z-index="1" class="highcharts-graph" d="M 9.9215686274421 311.943793911007 M 257.96078431372 262.76346604215456 L 381.98039215686 341.21779859484775 L 506 162.06088992974236 L 630.01960784314 190.1639344262295 M 878.05882352942 333.02107728337234 L 1002.0784313726 382.20140515222477" fill="none"></path></g><g clip-path="none" transform="translate(88,68) scale(1 1)" class="highcharts-markers highcharts-series-2 highcharts-line-series" data-z-index="0.1"><path class="highcharts-point" d="M 5 307.943793911007 L 13 307.943793911007 13 315.943793911007 5 315.943793911007 Z" fill="#DDB33A"></path><path class="highcharts-point" d="M 253 258.76346604215456 L 261 258.76346604215456 261 266.76346604215456 253 266.76346604215456 Z" fill="#DDB33A"></path><path class="highcharts-point" d="M 377 337.21779859484775 L 385 337.21779859484775 385 345.21779859484775 377 345.21779859484775 Z" fill="#DDB33A"></path><path class="highcharts-point" d="M 502 158.06088992974236 L 510 158.06088992974236 510 166.06088992974236 502 166.06088992974236 Z" fill="#DDB33A"></path><path class="highcharts-point" d="M 626 186.1639344262295 L 634 186.1639344262295 634 194.1639344262295 626 194.1639344262295 Z" fill="#DDB33A"></path><path class="highcharts-point" d="M 874 329.02107728337234 L 882 329.02107728337234 882 337.02107728337234 874 337.02107728337234 Z" fill="#DDB33A"></path><path class="highcharts-point" d="M 998 378.20140515222477 L 1006 378.20140515222477 1006 386.20140515222477 998 386.20140515222477 Z" fill="#DDB33A"></path></g><g clip-path="url(#highcharts-gcfalos-246)" transform="translate(88,68) scale(1 1)" class="highcharts-series highcharts-series-3 highcharts-line-series" data-z-index="0.1"><path stroke-linecap="round" stroke-linejoin="round" stroke-width="7" stroke="#3BACAC" data-z-index="1" class="highcharts-graph" d="M 9.9215686274421 337.7049180327869 M 257.96078431372 409.1334894613583 L 381.98039215686 389.22716627634657 L 506 460.655737704918 L 630.01960784314 532.0843091334895 M 878.05882352942 546.135831381733 L 1002.0784313726 433.72365339578454" fill="none"></path></g><g clip-path="none" transform="translate(88,68) scale(1 1)" class="highcharts-markers highcharts-series-3 highcharts-line-series" data-z-index="0.1"><path class="highcharts-point" d="M 9 333.7049180327869 L 13 341.7049180327869 5 341.7049180327869 Z" fill="#3BACAC"></path><path class="highcharts-point" d="M 257 405.1334894613583 L 261 413.1334894613583 253 413.1334894613583 Z" fill="#3BACAC"></path><path class="highcharts-point" d="M 381 385.22716627634657 L 385 393.22716627634657 377 393.22716627634657 Z" fill="#3BACAC"></path><path class="highcharts-point" d="M 506 456.655737704918 L 510 464.655737704918 502 464.655737704918 Z" fill="#3BACAC"></path><path class="highcharts-point" d="M 630 528.0843091334895 L 634 536.0843091334895 626 536.0843091334895 Z" fill="#3BACAC"></path><path class="highcharts-point" d="M 878 542.135831381733 L 882 550.135831381733 874 550.135831381733 Z" fill="#3BACAC"></path><path class="highcharts-point" d="M 1002 429.72365339578454 L 1006 437.72365339578454 998 437.72365339578454 Z" fill="#3BACAC"></path></g><g clip-path="url(#highcharts-gcfalos-246)" transform="translate(88,68) scale(1 1)" class="highcharts-series highcharts-series-4 highcharts-line-series" data-z-index="0.1"><path stroke-linecap="round" stroke-linejoin="round" stroke-width="7" stroke="#FE9D00" data-z-index="1" class="highcharts-graph" d="M 506 556.6744730679156 L 630.01960784314 523.887587822014 M 878.05882352942 518.0327868852459 L 1002.0784313726 522.7166276346604" fill="none"></path></g><g clip-path="none" transform="translate(88,68) scale(1 1)" class="highcharts-markers highcharts-series-4 highcharts-line-series" data-z-index="0.1"><path class="highcharts-point" d="M 502 552.6744730679156 L 510 552.6744730679156 506 560.6744730679156 Z" fill="#FE9D00"></path><path class="highcharts-point" d="M 626 519.887587822014 L 634 519.887587822014 630 527.887587822014 Z" fill="#FE9D00"></path><path class="highcharts-point" d="M 874 514.0327868852459 L 882 514.0327868852459 878 522.0327868852459 Z" fill="#FE9D00"></path><path class="highcharts-point" d="M 998 518.7166276346604 L 1006 518.7166276346604 1002 526.7166276346604 Z" fill="#FE9D00"></path></g><g clip-path="url(#highcharts-gcfalos-246)" transform="translate(88,68) scale(1 1)" class="highcharts-series highcharts-series-5 highcharts-line-series" data-z-index="0.1"><path stroke-linecap="round" stroke-linejoin="round" stroke-width="7" stroke="#EEE716" data-z-index="1" class="highcharts-graph" d="M 381.98039215686 596.4871194379391 L 506 571.8969555035129 L 630.01960784314 554.3325526932084 M 878.05882352942 467.6814988290398 L 1002.0784313726 555.5035128805621" fill="none"></path></g><g clip-path="none" transform="translate(88,68) scale(1 1)" class="highcharts-markers highcharts-series-5 highcharts-line-series" data-z-index="0.1"><path class="highcharts-point" d="M 385 596.4871194379391 A 4 4 0 1 1 384.9999980000002 596.4831194386057 Z" fill="#EEE716"></path><path class="highcharts-point" d="M 510 571.8969555035129 A 4 4 0 1 1 509.9999980000002 571.8929555041796 Z" fill="#EEE716"></path><path class="highcharts-point" d="M 634 554.3325526932084 A 4 4 0 1 1 633.9999980000001 554.328552693875 Z" fill="#EEE716"></path><path class="highcharts-point" d="M 882 467.6814988290398 A 4 4 0 1 1 881.9999980000001 467.67749882970645 Z" fill="#EEE716"></path><path class="highcharts-point" d="M 1006 555.5035128805621 A 4 4 0 1 1 1005.9999980000001 555.4995128812287 Z" fill="#EEE716"></path></g><g clip-path="url(#highcharts-gcfalos-246)" transform="translate(88,68) scale(1 1)" class="highcharts-series highcharts-series-6 highcharts-line-series" data-z-index="0.1"><path stroke-linecap="round" stroke-linejoin="round" stroke-width="7" stroke="#933F2C" data-z-index="1" class="highcharts-graph" d="M 381.98039215686 455.9718969555035 L 506 495.7845433255269 L 630.01960784314 457.1428571428571 M 878.05882352942 522.7166276346604 L 1002.0784313726 581.2646370023419" fill="none"></path></g><g clip-path="none" transform="translate(88,68) scale(1 1)" class="highcharts-markers highcharts-series-6 highcharts-line-series" data-z-index="0.1"><path class="highcharts-point" d="M 381 451.9718969555035 L 385 455.9718969555035 381 459.9718969555035 377 455.9718969555035 Z" fill="#933F2C"></path><path class="highcharts-point" d="M 506 491.7845433255269 L 510 495.7845433255269 506 499.7845433255269 502 495.7845433255269 Z" fill="#933F2C"></path><path class="highcharts-point" d="M 630 453.1428571428571 L 634 457.1428571428571 630 461.1428571428571 626 457.1428571428571 Z" fill="#933F2C"></path><path class="highcharts-point" d="M 878 518.7166276346604 L 882 522.7166276346604 878 526.7166276346604 874 522.7166276346604 Z" fill="#933F2C"></path><path class="highcharts-point" d="M 1002 577.2646370023419 L 1006 581.2646370023419 1002 585.2646370023419 998 581.2646370023419 Z" fill="#933F2C"></path></g><g clip-path="url(#highcharts-gcfalos-246)" transform="translate(88,68) scale(1 1)" class="highcharts-series highcharts-series-7 highcharts-line-series" data-z-index="0.1"><path stroke-linecap="round" stroke-linejoin="round" stroke-width="7" stroke="#0068FF" data-z-index="1" class="highcharts-graph" d="M 506 600" fill="none"></path></g><g clip-path="none" transform="translate(88,68) scale(1 1)" class="highcharts-markers highcharts-series-7 highcharts-line-series" data-z-index="0.1"><path class="highcharts-point" d="M 502 596 L 510 596 510 604 502 604 Z" fill="#0068FF"></path></g></g><text y="30" style="color:#333333;font-size:24px;fill:#333333;" data-z-index="4" class="highcharts-title" text-anchor="middle" x="640"><tspan>Shohei Ohtani Pitch %   by Season</tspan></text><text y="53" style="color:#666666;fill:#666666;" data-z-index="4" class="highcharts-subtitle" text-anchor="middle" x="640"><tspan>Source: baseballsavant.mlb.com</tspan></text><g transform="translate(1112,236)" data-z-index="7" class="highcharts-legend"><rect visibility="visible" height="243" width="158" y="0" x="0" ry="0" rx="0" class="highcharts-legend-box" fill="none"></rect><g data-z-index="1"><g><g transform="translate(8,3)" data-z-index="1" class="highcharts-legend-item highcharts-line-series highcharts-color-undefined highcharts-series-0"><path stroke-width="7" stroke="#D22D49" class="highcharts-graph" d="M 0 20 L 16 20" fill="none"></path><path class="highcharts-point" d="M 12 20 A 4 4 0 1 1 11.999998000000167 19.996000000666665 Z" fill="#D22D49"></path><text y="27" data-z-index="2" text-anchor="start" style="color:#333333;font-size:24px;font-weight:bold;cursor:pointer;fill:#333333;" x="21"><tspan>Four Seamer</tspan></text></g><g transform="translate(8,32)" data-z-index="1" class="highcharts-legend-item highcharts-line-series highcharts-color-undefined highcharts-series-1"><path stroke-width="7" stroke="#00D1ED" class="highcharts-graph" d="M 0 20 L 16 20" fill="none"></path><path class="highcharts-point" d="M 8 16 L 12 20 8 24 4 20 Z" fill="#00D1ED"></path><text data-z-index="2" text-anchor="start" style="color:#333333;font-size:24px;font-weight:bold;cursor:pointer;fill:#333333;" y="27" x="21"><tspan>Curveball</tspan></text></g><g transform="translate(8,61)" data-z-index="1" class="highcharts-legend-item highcharts-line-series highcharts-color-undefined highcharts-series-2"><path stroke-width="7" stroke="#DDB33A" class="highcharts-graph" d="M 0 20 L 16 20" fill="none"></path><path class="highcharts-point" d="M 4 16 L 12 16 12 24 4 24 Z" fill="#DDB33A"></path><text data-z-index="2" text-anchor="start" style="color:#333333;font-size:24px;font-weight:bold;cursor:pointer;fill:#333333;" y="27" x="21"><tspan>Sweeper</tspan></text></g><g transform="translate(8,90)" data-z-index="1" class="highcharts-legend-item highcharts-line-series highcharts-color-undefined highcharts-series-3"><path stroke-width="7" stroke="#3BACAC" class="highcharts-graph" d="M 0 20 L 16 20" fill="none"></path><path class="highcharts-point" d="M 8 16 L 12 24 4 24 Z" fill="#3BACAC"></path><text data-z-index="2" text-anchor="start" style="color:#333333;font-size:24px;font-weight:bold;cursor:pointer;fill:#333333;" y="27" x="21"><tspan>Split Finger</tspan></text></g><g transform="translate(8,119)" data-z-index="1" class="highcharts-legend-item highcharts-line-series highcharts-color-undefined highcharts-series-4"><path stroke-width="7" stroke="#FE9D00" class="highcharts-graph" d="M 0 20 L 16 20" fill="none"></path><path class="highcharts-point" d="M 4 16 L 12 16 8 24 Z" fill="#FE9D00"></path><text data-z-index="2" text-anchor="start" style="color:#333333;font-size:24px;font-weight:bold;cursor:pointer;fill:#333333;" y="27" x="21"><tspan>Sinker</tspan></text></g><g transform="translate(8,148)" data-z-index="1" class="highcharts-legend-item highcharts-line-series highcharts-color-undefined highcharts-series-5"><path stroke-width="7" stroke="#EEE716" class="highcharts-graph" d="M 0 20 L 16 20" fill="none"></path><path class="highcharts-point" d="M 12 20 A 4 4 0 1 1 11.999998000000167 19.996000000666665 Z" fill="#EEE716"></path><text data-z-index="2" text-anchor="start" style="color:#333333;font-size:24px;font-weight:bold;cursor:pointer;fill:#333333;" y="27" x="21"><tspan>Slider</tspan></text></g><g transform="translate(8,177)" data-z-index="1" class="highcharts-legend-item highcharts-line-series highcharts-color-undefined highcharts-series-6"><path stroke-width="7" stroke="#933F2C" class="highcharts-graph" d="M 0 20 L 16 20" fill="none"></path><path class="highcharts-point" d="M 8 16 L 12 20 8 24 4 20 Z" fill="#933F2C"></path><text data-z-index="2" text-anchor="start" style="color:#333333;font-size:24px;font-weight:bold;cursor:pointer;fill:#333333;" y="27" x="21"><tspan>Cutter</tspan></text></g><g transform="translate(8,206)" data-z-index="1" class="highcharts-legend-item highcharts-line-series highcharts-color-undefined highcharts-series-7"><path stroke-width="7" stroke="#0068FF" class="highcharts-graph" d="M 0 20 L 16 20" fill="none"></path><path class="highcharts-point" d="M 4 16 L 12 16 12 24 4 24 Z" fill="#0068FF"></path><text data-z-index="2" text-anchor="start" style="color:#333333;font-size:24px;font-weight:bold;cursor:pointer;fill:#333333;" y="27" x="21"><tspan>Slow Curve</tspan></text></g></g></g></g><g data-z-index="7" class="highcharts-axis-labels highcharts-xaxis-labels"><text opacity="1" y="699" transform="translate(0,0)" text-anchor="middle" style="color:#666666;cursor:default;font-size:24px;fill:#666666;" x="97.921568627442">2018</text><text opacity="1" y="699" transform="translate(0,0)" text-anchor="middle" style="color:#666666;cursor:default;font-size:24px;fill:#666666;" x="221.94117647058">2019</text><text opacity="1" y="699" transform="translate(0,0)" text-anchor="middle" style="color:#666666;cursor:default;font-size:24px;fill:#666666;" x="345.96078431372">2020</text><text opacity="1" y="699" transform="translate(0,0)" text-anchor="middle" style="color:#666666;cursor:default;font-size:24px;fill:#666666;" x="469.98039215686">2021</text><text opacity="1" y="699" transform="translate(0,0)" text-anchor="middle" style="color:#666666;cursor:default;font-size:24px;fill:#666666;" x="594">2022</text><text opacity="1" y="699" transform="translate(0,0)" text-anchor="middle" style="color:#666666;cursor:default;font-size:24px;fill:#666666;" x="718.01960784314">2023</text><text opacity="1" y="699" transform="translate(0,0)" text-anchor="middle" style="color:#666666;cursor:default;font-size:24px;fill:#666666;" x="842.03921568628">2024</text><text opacity="1" y="699" transform="translate(0,0)" text-anchor="middle" style="color:#666666;cursor:default;font-size:24px;fill:#666666;" x="966.05882352942">2025</text><text opacity="1" y="699" transform="translate(0,0)" text-anchor="middle" style="color:#666666;cursor:default;font-size:24px;fill:#666666;" x="1090.0784313726">2026</text></g><g data-z-index="7" class="highcharts-axis-labels highcharts-yaxis-labels"><text opacity="1" y="677" transform="translate(0,0)" text-anchor="end" style="color:#666666;cursor:default;font-size:24px;fill:#666666;" x="73">0</text><text opacity="1" y="618" transform="translate(0,0)" text-anchor="end" style="color:#666666;cursor:default;font-size:24px;fill:#666666;" x="73">5</text><text opacity="1" y="559" transform="translate(0,0)" text-anchor="end" style="color:#666666;cursor:default;font-size:24px;fill:#666666;" x="73">10</text><text opacity="1" y="501" transform="translate(0,0)" text-anchor="end" style="color:#666666;cursor:default;font-size:24px;fill:#666666;" x="73">15</text><text opacity="1" y="442" transform="translate(0,0)" text-anchor="end" style="color:#666666;cursor:default;font-size:24px;fill:#666666;" x="73">20</text><text opacity="1" y="384" transform="translate(0,0)" text-anchor="end" style="color:#666666;cursor:default;font-size:24px;fill:#666666;" x="73">25</text><text opacity="1" y="325" transform="translate(0,0)" text-anchor="end" style="color:#666666;cursor:default;font-size:24px;fill:#666666;" x="73">30</text><text opacity="1" y="267" transform="translate(0,0)" text-anchor="end" style="color:#666666;cursor:default;font-size:24px;fill:#666666;" x="73">35</text><text opacity="1" y="208" transform="translate(0,0)" text-anchor="end" style="color:#666666;cursor:default;font-size:24px;fill:#666666;" x="73">40</text><text opacity="1" y="150" transform="translate(0,0)" text-anchor="end" style="color:#666666;cursor:default;font-size:24px;fill:#666666;" x="73">45</text><text opacity="1" y="91" transform="translate(0,0)" text-anchor="end" style="color:#666666;cursor:default;font-size:24px;fill:#666666;" x="73">50</text></g></svg>