<svg viewBox="0 0 1280 720" height="720" width="1280" xmlns="http://www.w3.org/2000/svg" style="font-family:Roboto Condensed;font-size:12px;font-weight:bold;" class="highcharts-root" version="1.1" xmlns:xlink="http://www.w3.org/1999/xlink"><desc>Created with Highcharts 6.2.0</desc><defs><clipPath id="highcharts-gcfalos-172"><rect fill="none" height="600" width="1051" y="0" x="0"></rect></clipPath></defs><rect ry="0" rx="0" height="720" width="1280" y="0" x="0" class="highcharts-background" fill="#ffffff"></rect><rect height="600" width="1051" y="68" x="49" class="highcharts-plot-background" fill="none"></rect><rect height="600" width="1051" y="68" x="49" data-z-index="1" class="highcharts-plot-border" fill="none"></rect><g data-z-index="1" class="highcharts-grid highcharts-xaxis-grid"><path opacity="1" d="M 58.5 68 L 58.5 668" class="highcharts-grid-line" data-z-index="1" fill="none"></path><path opacity="1" d="M 187.5 68 L 187.5 668" class="highcharts-grid-line" data-z-index="1" fill="none"></path><path opacity="1" d="M 316.5 68 L 316.5 668" class="highcharts-grid-line" data-z-index="1" fill="none"></path><path opacity="1" d="M 445.5 68 L 445.5 668" class="highcharts-grid-line" data-z-index="1" fill="none"></path><path opacity="1" d="M 574.5 68 L 574.5 668" class="highcharts-grid-line" data-z-index="1" fill="none"></path><path opacity="1" d="M 702.5 68 L 702.5 668" class="highcharts-grid-line" data-z-index="1" fill="none"></path><path opacity="1" d="M 831.5 68 L 831.5 668" class="highcharts-grid-line" data-z-index="1" fill="none"></path><path opacity="1" d="M 960.5 68 L 960.5 668" class="highcharts-grid-line" data-z-index="1" fill="none"></path><path opacity="1" d="M 1089.5 68 L 1089.5 668" class="highcharts-grid-line" data-z-index="1" fill="none"></path></g><g data-z-index="1" class="highcharts-grid highcharts-yaxis-grid"><path opacity="1" d="M 49 668.5 L 1100 668.5" class="highcharts-grid-line" data-z-index="1" stroke-width="1" stroke="#e6e6e6" fill="none"></path><path opacity="1" d="M 49 593.5 L 1100 593.5" class="highcharts-grid-line" data-z-index="1" stroke-width="1" stroke="#e6e6e6" fill="none"></path><path opacity="1" d="M 49 518.5 L 1100 518.5" class="highcharts-grid-line" data-z-index="1" stroke-width="1" stroke="#e6e6e6" fill="none"></path><path opacity="1" d="M 49 443.5 L 1100 443.5" class="highcharts-grid-line" data-z-index="1" stroke-width="1" stroke="#e6e6e6" fill="none"></path><path opacity="1" d="M 49 368.5 L 1100 368.5" class="highcharts-grid-line" data-z-index="1" stroke-width="1" stroke="#e6e6e6" fill="none"></path><path opacity="1" d="M 49 293.5 L 1100 293.5" class="highcharts-grid-line" data-z-index="1" stroke-width="1" stroke="#e6e6e6" fill="none"></path><path opacity="1" d="M 49 218.5 L 1100 218.5" class="highcharts-grid-line" data-z-index="1" stroke-width="1" stroke="#e6e6e6" fill="none"></path><path opacity="1" d="M 49 143.5 L 1100 143.5" class="highcharts-grid-line" data-z-index="1" stroke-width="1" stroke="#e6e6e6" fill="none"></path><path opacity="1" d="M 49 67.5 L 1100 67.5" class="highcharts-grid-line" data-z-index="1" stroke-width="1" stroke="#e6e6e6" fill="none"></path></g><g data-z-index="2" class="highcharts-axis highcharts-xaxis"><path opacity="1" d="M 58.5 668 L 58.5 678" stroke-width="1" stroke="#ccd6eb" class="highcharts-tick" fill="none"></path><path opacity="1" d="M 187.5 668 L 187.5 678" stroke-width="1" stroke="#ccd6eb" class="highcharts-tick" fill="none"></path><path opacity="1" d="M 316.5 668 L 316.5 678" stroke-width="1" stroke="#ccd6eb" class="highcharts-tick" fill="none"></path><path opacity="1" d="M 445.5 668 L 445.5 678" stroke-width="1" stroke="#ccd6eb" class="highcharts-tick" fill="none"></path><path opacity="1" d="M 574.5 668 L 574.5 678" stroke-width="1" stroke="#ccd6eb" class="highcharts-tick" fill="none"></path><path opacity="1" d="M 702.5 668 L 702.5 678" stroke-width="1" stroke="#ccd6eb" class="highcharts-tick" fill="none"></path><path opacity="1" d="M 831.5 668 L 831.5 678" stroke-width="1" stroke="#ccd6eb" class="highcharts-tick" fill="none"></path><path opacity="1" d="M 960.5 668 L 960.5 678" stroke-width="1" stroke="#ccd6eb" class="highcharts-tick" fill="none"></path><path opacity="1" d="M 1089.5 668 L 1089.5 678" stroke-width="1" stroke="#ccd6eb" class="highcharts-tick" fill="none"></path><path d="M 49 668.5 L 1100 668.5" data-z-index="7" stroke-width="1" stroke="#ccd6eb" class="highcharts-axis-line" fill="none"></path></g><g data-z-index="2" class="highcharts-axis highcharts-yaxis"><path d="M 49 68 L 49 668" data-z-index="7" class="highcharts-axis-line" fill="none"></path></g><g data-z-index="3" class="highcharts-series-group"><g clip-path="url(#highcharts-gcfalos-172)" transform="translate(49,68) scale(1 1)" class="highcharts-series highcharts-series-0 highcharts-line-series" data-z-index="0.1"><path stroke-linecap="round" stroke-linejoin="round" stroke-width="7" stroke="#D22D49" data-z-index="1" class="highcharts-graph" d="M 10.303921568618 345 M 267.90196078431 435 L 396.70098039215 420 L 525.5 438.75 L 654.29901960785 431.25 M 911.89705882354 401.25 L 1040.6960784314 423.75" fill="none"></path></g><g clip-path="none" transform="translate(49,68) scale(1 1)" class="highcharts-markers highcharts-series-0 highcharts-line-series" data-z-index="0.1"><path class="highcharts-point" d="M 12 345 A 2 2 0 1 1 11.999999000000084 344.9980000003333 Z" fill="#D22D49"></path><path class="highcharts-point highcharts-negative" d="M 269 435 A 2 2 0 1 1 268.99999900000006 434.9980000003333 Z" fill="#D22D49"></path><path class="highcharts-point highcharts-negative" d="M 398 420 A 2 2 0 1 1 397.99999900000006 419.9980000003333 Z" fill="#D22D49"></path><path class="highcharts-point highcharts-negative" d="M 527 438.75 A 2 2 0 1 1 526.9999990000001 438.7480000003333 Z" fill="#D22D49"></path><path class="highcharts-point highcharts-negative" d="M 656 431.25 A 2 2 0 1 1 655.9999990000001 431.2480000003333 Z" fill="#D22D49"></path><path class="highcharts-point highcharts-negative" d="M 913 401.25 A 2 2 0 1 1 912.9999990000001 401.2480000003333 Z" fill="#D22D49"></path><path class="highcharts-point highcharts-negative" d="M 1042 423.75 A 2 2 0 1 1 1041.9999990000001 423.7480000003333 Z" fill="#D22D49"></path></g><g clip-path="url(#highcharts-gcfalos-172)" transform="translate(49,68) scale(1 1)" class="highcharts-series highcharts-series-1 highcharts-line-series" data-z-index="0.1"><path stroke-linecap="round" stroke-linejoin="round" stroke-width="7" stroke="#DDB33A" data-z-index="1" class="highcharts-graph" d="M 10.303921568618 472.5 M 267.90196078431 566.25 L 396.70098039215 487.5 L 525.5 480 L 654.29901960785 453.75 M 911.89705882354 483.75 L 1040.6960784314 498.75" fill="none"></path></g><g clip-path="none" transform="translate(49,68) scale(1 1)" class="highcharts-markers highcharts-series-1 highcharts-line-series" data-z-index="0.1"><path class="highcharts-point highcharts-negative" d="M 10 470.5 L 12 472.5 10 474.5 8 472.5 Z" fill="#DDB33A"></path><path class="highcharts-point highcharts-negative" d="M 267 564.25 L 269 566.25 267 568.25 265 566.25 Z" fill="#DDB33A"></path><path class="highcharts-point highcharts-negative" d="M 396 485.5 L 398 487.5 396 489.5 394 487.5 Z" fill="#DDB33A"></path><path class="highcharts-point highcharts-negative" d="M 525 478 L 527 480 525 482 523 480 Z" fill="#DDB33A"></path><path class="highcharts-point highcharts-negative" d="M 654 451.75 L 656 453.75 654 455.75 652 453.75 Z" fill="#DDB33A"></path><path class="highcharts-point highcharts-negative" d="M 911 481.75 L 913 483.75 911 485.75 909 483.75 Z" fill="#DDB33A"></path><path class="highcharts-point highcharts-negative" d="M 1040 496.75 L 1042 498.75 1040 500.75 1038 498.75 Z" fill="#DDB33A"></path></g><g clip-path="url(#highcharts-gcfalos-172)" transform="translate(49,68) scale(1 1)" class="highcharts-series highcharts-series-2 highcharts-line-series" data-z-index="0.1"><path stroke-linecap="round" stroke-linejoin="round" stroke-width="7" stroke="#3BACAC" data-z-index="1" class="highcharts-graph" d="M 10.303921568618 292.5 M 267.90196078431 258.75 L 396.70098039215 322.5 L 525.5 303.75 L 654.29901960785 360 M 911.89705882354 352.5 L 1040.6960784314 375" fill="none"></path></g><g clip-path="none" transform="translate(49,68) scale(1 1)" class="highcharts-markers highcharts-series-2 highcharts-line-series" data-z-index="0.1"><path class="highcharts-point" d="M 8 290.5 L 12 290.5 12 294.5 8 294.5 Z" fill="#3BACAC"></path><path class="highcharts-point" d="M 265 256.75 L 269 256.75 269 260.75 265 260.75 Z" fill="#3BACAC"></path><path class="highcharts-point" d="M 394 320.5 L 398 320.5 398 324.5 394 324.5 Z" fill="#3BACAC"></path><path class="highcharts-point" d="M 523 301.75 L 527 301.75 527 305.75 523 305.75 Z" fill="#3BACAC"></path><path class="highcharts-point" d="M 652 358 L 656 358 656 362 652 362 Z" fill="#3BACAC"></path><path class="highcharts-point" d="M 909 350.5 L 913 350.5 913 354.5 909 354.5 Z" fill="#3BACAC"></path><path class="highcharts-point" d="M 1038 373 L 1042 373 1042 377 1038 377 Z" fill="#3BACAC"></path></g><g clip-path="url(#highcharts-gcfalos-172)" transform="translate(49,68) scale(1 1)" class="highcharts-series highcharts-series-3 highcharts-line-series" data-z-index="0.1"><path stroke-linecap="round" stroke-linejoin="round" stroke-width="7" stroke="#00D1ED" data-z-index="1" class="highcharts-graph" d="M 10.303921568618 232.5 M 267.90196078431 337.5 L 396.70098039215 292.5 L 525.5 292.5 L 654.29901960785 300 M 911.89705882354 277.5 L 1040.6960784314 266.25" fill="none"></path></g><g clip-path="none" transform="translate(49,68) scale(1 1)" class="highcharts-markers highcharts-series-3 highcharts-line-series" data-z-index="0.1"><path class="highcharts-point" d="M 10 230.5 L 12 234.5 8 234.5 Z" fill="#00D1ED"></path><path class="highcharts-point" d="M 267 335.5 L 269 339.5 265 339.5 Z" fill="#00D1ED"></path><path class="highcharts-point" d="M 396 290.5 L 398 294.5 394 294.5 Z" fill="#00D1ED"></path><path class="highcharts-point" d="M 525 290.5 L 527 294.5 523 294.5 Z" fill="#00D1ED"></path><path class="highcharts-point" d="M 654 298 L 656 302 652 302 Z" fill="#00D1ED"></path><path class="highcharts-point" d="M 911 275.5 L 913 279.5 909 279.5 Z" fill="#00D1ED"></path><path class="highcharts-point" d="M 1040 264.25 L 1042 268.25 1038 268.25 Z" fill="#00D1ED"></path></g><g clip-path="url(#highcharts-gcfalos-172)" transform="translate(49,68) scale(1 1)" class="highcharts-series highcharts-series-4 highcharts-line-series" data-z-index="0.1"><path stroke-linecap="round" stroke-linejoin="round" stroke-width="7" stroke="#933F2C" data-z-index="1" class="highcharts-graph" d="M 396.70098039215 506.25 L 525.5 483.75 L 654.29901960785 438.75 M 911.89705882354 431.25 L 1040.6960784314 337.5" fill="none"></path></g><g clip-path="none" transform="translate(49,68) scale(1 1)" class="highcharts-markers highcharts-series-4 highcharts-line-series" data-z-index="0.1"><path class="highcharts-point highcharts-negative" d="M 394 504.25 L 398 504.25 396 508.25 Z" fill="#933F2C"></path><path class="highcharts-point highcharts-negative" d="M 523 481.75 L 527 481.75 525 485.75 Z" fill="#933F2C"></path><path class="highcharts-point highcharts-negative" d="M 652 436.75 L 656 436.75 654 440.75 Z" fill="#933F2C"></path><path class="highcharts-point highcharts-negative" d="M 909 429.25 L 913 429.25 911 433.25 Z" fill="#933F2C"></path><path class="highcharts-point" d="M 1038 335.5 L 1042 335.5 1040 339.5 Z" fill="#933F2C"></path></g><g clip-path="url(#highcharts-gcfalos-172)" transform="translate(49,68) scale(1 1)" class="highcharts-series highcharts-series-5 highcharts-line-series" data-z-index="0.1"><path stroke-linecap="round" stroke-linejoin="round" stroke-width="7" stroke="#FE9D00" data-z-index="1" class="highcharts-graph" d="M 525.5 251.25 L 654.29901960785 255 M 911.89705882354 326.25 L 1040.6960784314 356.25" fill="none"></path></g><g clip-path="none" transform="translate(49,68) scale(1 1)" class="highcharts-markers highcharts-series-5 highcharts-line-series" data-z-index="0.1"><path class="highcharts-point" d="M 527 251.25 A 2 2 0 1 1 526.9999990000001 251.24800000033332 Z" fill="#FE9D00"></path><path class="highcharts-point" d="M 656 255 A 2 2 0 1 1 655.9999990000001 254.99800000033332 Z" fill="#FE9D00"></path><path class="highcharts-point" d="M 913 326.25 A 2 2 0 1 1 912.9999990000001 326.2480000003333 Z" fill="#FE9D00"></path><path class="highcharts-point" d="M 1042 356.25 A 2 2 0 1 1 1041.9999990000001 356.2480000003333 Z" fill="#FE9D00"></path></g><g clip-path="url(#highcharts-gcfalos-172)" transform="translate(49,68) scale(1 1)" class="highcharts-series highcharts-series-6 highcharts-line-series" data-z-index="0.1"><path stroke-linecap="round" stroke-linejoin="round" stroke-width="7" stroke="#EEE716" data-z-index="1" class="highcharts-graph" d="M 396.70098039215 258.75 L 525.5 86.25 L 654.29901960785 262.5 M 911.89705882354 277.5 L 1040.6960784314 262.5" fill="none"></path></g><g clip-path="none" transform="translate(49,68) scale(1 1)" class="highcharts-markers highcharts-series-6 highcharts-line-series" data-z-index="0.1"><path class="highcharts-point" d="M 396 256.75 L 398 258.75 396 260.75 394 258.75 Z" fill="#EEE716"></path><path class="highcharts-point" d="M 525 84.25 L 527 86.25 525 88.25 523 86.25 Z" fill="#EEE716"></path><path class="highcharts-point" d="M 654 260.5 L 656 262.5 654 264.5 652 262.5 Z" fill="#EEE716"></path><path class="highcharts-point" d="M 911 275.5 L 913 277.5 911 279.5 909 277.5 Z" fill="#EEE716"></path><path class="highcharts-point" d="M 1040 260.5 L 1042 262.5 1040 264.5 1038 262.5 Z" fill="#EEE716"></path></g></g><text y="30" style="color:#333333;font-size:24px;fill:#333333;" data-z-index="4" class="highcharts-title" text-anchor="middle" x="640"><tspan>Shohei Ohtani Vertical Movement vs Avg (Inches) by Season</tspan></text><text y="53" style="color:#666666;fill:#666666;" data-z-index="4" class="highcharts-subtitle" text-anchor="middle" x="640"><tspan>Source: baseballsavant.mlb.com</tspan></text><g transform="translate(1112,251)" data-z-index="7" class="highcharts-legend"><rect visibility="visible" height="214" width="158" y="0" x="0" ry="0" rx="0" class="highcharts-legend-box" fill="none"></rect><g data-z-index="1"><g><g transform="translate(8,3)" data-z-index="1" class="highcharts-legend-item highcharts-line-series highcharts-color-undefined highcharts-series-0"><path stroke-width="7" stroke="#D22D49" class="highcharts-graph" d="M 0 20 L 16 20" fill="none"></path><path class="highcharts-point" d="M 10 20 A 2 2 0 1 1 9.999999000000084 19.99800000033333 Z" fill="#D22D49"></path><text y="27" data-z-index="2" text-anchor="start" style="color:#333333;font-size:24px;font-weight:bold;cursor:pointer;fill:#333333;" x="21"><tspan>Four Seamer</tspan></text></g><g transform="translate(8,32)" data-z-index="1" class="highcharts-legend-item highcharts-line-series highcharts-color-undefined highcharts-series-1"><path stroke-width="7" stroke="#DDB33A" class="highcharts-graph" d="M 0 20 L 16 20" fill="none"></path><path class="highcharts-point" d="M 8 18 L 10 20 8 22 6 20 Z" fill="#DDB33A"></path><text data-z-index="2" text-anchor="start" style="color:#333333;font-size:24px;font-weight:bold;cursor:pointer;fill:#333333;" y="27" x="21"><tspan>Sweeper</tspan></text></g><g transform="translate(8,61)" data-z-index="1" class="highcharts-legend-item highcharts-line-series highcharts-color-undefined highcharts-series-2"><path stroke-width="7" stroke="#3BACAC" class="highcharts-graph" d="M 0 20 L 16 20" fill="none"></path><path class="highcharts-point" d="M 6 18 L 10 18 10 22 6 22 Z" fill="#3BACAC"></path><text data-z-index="2" text-anchor="start" style="color:#333333;font-size:24px;font-weight:bold;cursor:pointer;fill:#333333;" y="27" x="21"><tspan>Split Finger</tspan></text></g><g transform="translate(8,90)" data-z-index="1" class="highcharts-legend-item highcharts-line-series highcharts-color-undefined highcharts-series-3"><path stroke-width="7" stroke="#00D1ED" class="highcharts-graph" d="M 0 20 L 16 20" fill="none"></path><path class="highcharts-point" d="M 8 18 L 10 22 6 22 Z" fill="#00D1ED"></path><text data-z-index="2" text-anchor="start" style="color:#333333;font-size:24px;font-weight:bold;cursor:pointer;fill:#333333;" y="27" x="21"><tspan>Curveball</tspan></text></g><g transform="translate(8,119)" data-z-index="1" class="highcharts-legend-item highcharts-line-series highcharts-color-undefined highcharts-series-4"><path stroke-width="7" stroke="#933F2C" class="highcharts-graph" d="M 0 20 L 16 20" fill="none"></path><path class="highcharts-point" d="M 6 18 L 10 18 8 22 Z" fill="#933F2C"></path><text data-z-index="2" text-anchor="start" style="color:#333333;font-size:24px;font-weight:bold;cursor:pointer;fill:#333333;" y="27" x="21"><tspan>Cutter</tspan></text></g><g transform="translate(8,148)" data-z-index="1" class="highcharts-legend-item highcharts-line-series highcharts-color-undefined highcharts-series-5"><path stroke-width="7" stroke="#FE9D00" class="highcharts-graph" d="M 0 20 L 16 20" fill="none"></path><path class="highcharts-point" d="M 10 20 A 2 2 0 1 1 9.999999000000084 19.99800000033333 Z" fill="#FE9D00"></path><text data-z-index="2" text-anchor="start" style="color:#333333;font-size:24px;font-weight:bold;cursor:pointer;fill:#333333;" y="27" x="21"><tspan>Sinker</tspan></text></g><g transform="translate(8,177)" data-z-index="1" class="highcharts-legend-item highcharts-line-series highcharts-color-undefined highcharts-series-6"><path stroke-width="7" stroke="#EEE716" class="highcharts-graph" d="M 0 20 L 16 20" fill="none"></path><path class="highcharts-point" d="M 8 18 L 10 20 8 22 6 20 Z" fill="#EEE716"></path><text data-z-index="2" text-anchor="start" style="color:#333333;font-size:24px;font-weight:bold;cursor:pointer;fill:#333333;" y="27" x="21"><tspan>Slider</tspan></text></g></g></g></g><g data-z-index="7" class="highcharts-axis-labels highcharts-xaxis-labels"><text opacity="1" y="699" transform="translate(0,0)" text-anchor="middle" style="color:#666666;cursor:default;font-size:24px;fill:#666666;" x="59.303921568618">2018</text><text opacity="1" y="699" transform="translate(0,0)" text-anchor="middle" style="color:#666666;cursor:default;font-size:24px;fill:#666666;" x="188.10294117646">2019</text><text opacity="1" y="699" transform="translate(0,0)" text-anchor="middle" style="color:#666666;cursor:default;font-size:24px;fill:#666666;" x="316.90196078431">2020</text><text opacity="1" y="699" transform="translate(0,0)" text-anchor="middle" style="color:#666666;cursor:default;font-size:24px;fill:#666666;" x="445.70098039215">2021</text><text opacity="1" y="699" transform="translate(0,0)" text-anchor="middle" style="color:#666666;cursor:default;font-size:24px;fill:#666666;" x="574.5">2022</text><text opacity="1" y="699" transform="translate(0,0)" text-anchor="middle" style="color:#666666;cursor:default;font-size:24px;fill:#666666;" x="703.29901960785">2023</text><text opacity="1" y="699" transform="translate(0,0)" text-anchor="middle" style="color:#666666;cursor:default;font-size:24px;fill:#666666;" x="832.09803921569">2024</text><text opacity="1" y="699" transform="translate(0,0)" text-anchor="middle" style="color:#666666;cursor:default;font-size:24px;fill:#666666;" x="960.89705882354">2025</text><text opacity="1" y="699" transform="translate(0,0)" text-anchor="middle" style="color:#666666;cursor:default;font-size:24px;fill:#666666;" x="1089.6960784314">2026</text></g><g data-z-index="7" class="highcharts-axis-labels highcharts-yaxis-labels"><text opacity="1" y="677" transform="translate(0,0)" text-anchor="end" style="color:#666666;cursor:default;font-size:24px;fill:#666666;" x="34">-6</text><text opacity="1" y="602" transform="translate(0,0)" text-anchor="end" style="color:#666666;cursor:default;font-size:24px;fill:#666666;" x="34">-4</text><text opacity="1" y="527" transform="translate(0,0)" text-anchor="end" style="color:#666666;cursor:default;font-size:24px;fill:#666666;" x="34">-2</text><text opacity="1" y="452" transform="translate(0,0)" text-anchor="end" style="color:#666666;cursor:default;font-size:24px;fill:#666666;" x="34">0</text><text opacity="1" y="377" transform="translate(0,0)" text-anchor="end" style="color:#666666;cursor:default;font-size:24px;fill:#666666;" x="34">2</text><text opacity="1" y="302" transform="translate(0,0)" text-anchor="end" style="color:#666666;cursor:default;font-size:24px;fill:#666666;" x="34">4</text><text opacity="1" y="227" transform="translate(0,0)" text-anchor="end" style="color:#666666;cursor:default;font-size:24px;fill:#666666;" x="34">6</text><text opacity="1" y="152" transform="translate(0,0)" text-anchor="end" style="color:#666666;cursor:default;font-size:24px;fill:#666666;" x="34">8</text><text opacity="1" y="77" transform="translate(0,0)" text-anchor="end" style="color:#666666;cursor:default;font-size:24px;fill:#666666;" x="34">10</text></g></svg>